<svg width="7" height="12" viewBox="0 0 7 12" fill="none" xmlns="http://www.w3.org/2000/svg">
<path d="M6.25002 5.99718L6.24998 5.99374C6.24892 5.9123 6.23298 5.83145 6.20263 5.75572L5.97057 5.8487L6.20263 5.75571C6.17261 5.6808 6.12883 5.61176 6.07291 5.55299L1.77248 0.895765L1.75569 0.87758L1.73566 0.86304C1.62058 0.779517 1.47975 0.739224 1.33685 0.752474C1.19411 0.765707 1.06332 0.831007 0.964877 0.932588C0.866794 1.0338 0.806134 1.16516 0.788915 1.30381C0.771701 1.4424 0.798331 1.58431 0.866468 1.70681L0.880997 1.73294L0.901275 1.7549L4.79469 5.97134L0.932345 10.1591C0.875354 10.2175 0.830566 10.2866 0.799666 10.3617C0.768137 10.4383 0.751436 10.5203 0.750089 10.603C0.748741 10.6857 0.76276 10.7683 0.791709 10.8459C0.820664 10.9235 0.864228 10.9953 0.920746 11.0565C0.977305 11.1178 1.04582 11.1673 1.1228 11.2009C1.19985 11.2346 1.28317 11.2515 1.36757 11.2499C1.45197 11.2483 1.53456 11.2283 1.61025 11.1917C1.68426 11.156 1.74965 11.1055 1.80334 11.0442L6.07863 6.43993L6.07899 6.43953C6.19033 6.3191 6.24987 6.15969 6.25002 5.99718Z" fill="white" stroke="white" stroke-width="0.5"/>
</svg>
