<svg width="7" height="12" viewBox="0 0 7 12" fill="none" xmlns="http://www.w3.org/2000/svg">
<path d="M0.749976 5.99718L0.750021 5.99374C0.751078 5.9123 0.767023 5.83145 0.797369 5.75572L1.02943 5.8487L0.797371 5.75571C0.82739 5.6808 0.871166 5.61176 0.927092 5.55299L5.22752 0.895765L5.24431 0.87758L5.26434 0.86304C5.37942 0.779517 5.52025 0.739224 5.66315 0.752474C5.80589 0.765707 5.93668 0.831007 6.03512 0.932588C6.13321 1.0338 6.19387 1.16516 6.21109 1.30381C6.2283 1.4424 6.20167 1.58431 6.13353 1.70681L6.119 1.73294L6.09872 1.7549L2.20531 5.97134L6.06765 10.1591C6.12465 10.2175 6.16943 10.2866 6.20033 10.3617C6.23186 10.4383 6.24856 10.5203 6.24991 10.603C6.25126 10.6857 6.23724 10.7683 6.20829 10.8459C6.17934 10.9235 6.13577 10.9953 6.07925 11.0565C6.02269 11.1178 5.95418 11.1673 5.8772 11.2009C5.80015 11.2346 5.71683 11.2515 5.63243 11.2499C5.54803 11.2483 5.46544 11.2283 5.38975 11.1917C5.31574 11.156 5.25035 11.1055 5.19666 11.0442L0.921375 6.43993L0.921009 6.43953C0.809667 6.3191 0.750133 6.15969 0.749976 5.99718Z" fill="white" stroke="white" stroke-width="0.5"/>
</svg>
