<svg width="66" height="66" viewBox="0 0 66 66" fill="none" xmlns="http://www.w3.org/2000/svg">
<path d="M33.2834 7.90991C19.3834 7.90991 7.9834 19.1099 7.9834 33.2099C7.9834 47.1099 19.2834 58.5099 33.2834 58.5099C47.1834 58.5099 58.5834 47.2099 58.5834 33.2099C58.4834 19.1099 47.0834 7.90991 33.2834 7.90991ZM53.8834 43.9099L52.0834 42.9099C51.5834 42.6099 50.9834 42.8099 50.6834 43.3099C50.3834 43.8099 50.5834 44.4099 51.0834 44.7099L52.8834 45.7099C51.0834 48.6099 48.5834 51.0099 45.7834 52.8099L44.7834 51.0099C44.4834 50.5099 43.8834 50.4099 43.3834 50.6099C42.8834 50.9099 42.7834 51.5099 42.9834 52.0099L44.0834 53.8099C41.1834 55.3099 37.8834 56.3099 34.3834 56.4099V54.3099C34.3834 53.8099 33.9834 53.3099 33.3834 53.3099C32.7834 53.3099 32.3834 53.8099 32.3834 54.3099V56.4099C28.8834 56.3099 25.5834 55.3099 22.5834 53.8099L23.6834 52.0099C23.9834 51.5099 23.7834 50.9099 23.2834 50.6099C22.7834 50.3099 22.1834 50.5099 21.8834 51.0099L20.8834 52.8099C17.9834 51.0099 15.5834 48.5099 13.7834 45.7099L15.5834 44.7099C16.0834 44.4099 16.1834 43.8099 15.9834 43.3099C15.6834 42.8099 15.0834 42.7099 14.5834 42.9099L12.7834 43.9099C11.2834 41.0099 10.2834 37.7099 10.1834 34.2099H12.2834C12.7834 34.2099 13.2834 33.7099 13.2834 33.2099C13.2834 32.6099 12.7834 32.2099 12.2834 32.2099H9.9834C10.1834 28.7099 11.0834 25.4099 12.5834 22.4099L14.3834 23.4099C14.8834 23.7099 15.4834 23.5099 15.7834 23.0099C16.0834 22.5099 15.8834 21.9099 15.3834 21.6099L13.5834 20.6099C15.3834 17.7099 17.8834 15.3099 20.6834 13.5099L21.6834 15.3099C21.9834 15.8099 22.5834 15.9099 23.0834 15.7099C23.5834 15.4099 23.6834 14.8099 23.4834 14.3099L22.3834 12.5099C25.2834 11.0099 28.5834 10.0099 32.1834 9.90991V12.0099C32.1834 12.5099 32.5834 13.0099 33.1834 13.0099C33.7834 13.0099 34.1834 12.5099 34.1834 12.0099V9.90991C37.6834 10.0099 40.9834 11.0099 43.8834 12.5099L42.7834 14.3099C42.4834 14.8099 42.6834 15.4099 43.1834 15.7099C43.6834 16.0099 44.2834 15.8099 44.5834 15.3099L45.5834 13.5099C48.4834 15.3099 50.8834 17.8099 52.6834 20.6099L50.8834 21.6099C50.3834 21.9099 50.2834 22.5099 50.4834 23.0099C50.7834 23.5099 51.3834 23.6099 51.8834 23.4099L53.6834 22.4099C55.1834 25.3099 56.1834 28.6099 56.2834 32.2099H54.1834C53.5834 32.2099 53.1834 32.6099 53.1834 33.2099C53.1834 33.7099 53.5834 34.2099 54.1834 34.2099H56.2834C56.2834 37.7099 55.3834 41.0099 53.8834 43.9099Z" fill="#6D4897" stroke="#6D4897"/>
<path d="M36.7832 33.21C36.7832 35.11 35.1832 36.71 33.2832 36.71C32.8832 36.71 32.4832 36.61 32.1832 36.51L25.9832 47.51C25.6832 48.01 25.0832 48.21 24.5832 47.91C24.0832 47.61 23.8832 47.01 24.1832 46.51L30.4832 35.31C29.9832 34.71 29.6832 34.01 29.6832 33.21C29.6832 31.61 30.7832 30.31 32.1832 29.91V19.71C32.1832 19.21 32.5832 18.71 33.1832 18.71C33.7832 18.71 34.1832 19.21 34.1832 19.71V29.81C35.6832 30.21 36.7832 31.61 36.7832 33.21Z" fill="#6D4897" stroke="#6D4897"/>
<path d="M60.7833 16.9099C60.4833 16.4099 59.8833 16.3099 59.3833 16.5099C58.8833 16.8099 58.7833 17.4099 58.9833 17.9099C61.6833 22.5099 63.1833 27.7099 63.1833 33.1099C63.1833 55.3099 39.7833 69.8099 19.9833 60.0099L21.5833 59.5099C22.0833 59.3099 22.3833 58.8099 22.2833 58.3099C22.0833 57.8099 21.5833 57.5099 21.0833 57.6099L17.1833 58.9099C16.5833 59.1099 16.3833 59.7099 16.4833 60.2099L17.6833 64.0099C17.8833 64.5099 18.3833 64.8099 18.8833 64.7099C19.3833 64.5099 19.6833 64.0099 19.5833 63.5099L19.1833 61.9099C40.2833 72.3099 65.2833 56.9099 65.2833 33.2099C65.2833 27.4099 63.6833 21.8099 60.7833 16.9099Z" fill="#6D4897" stroke="#6D4897"/>
<path d="M46.3833 6.20996L44.7833 6.70996C44.2833 6.90996 43.9833 7.40996 44.0833 7.90996C44.2833 8.40996 44.7833 8.70996 45.2833 8.60996L49.0833 7.40996C49.5833 7.20996 49.8833 6.70996 49.7833 6.20996C49.7833 6.10996 48.5833 2.30996 48.5833 2.40996C48.3833 1.90996 47.8833 1.60996 47.3833 1.70996C46.8833 1.90996 46.5833 2.40996 46.6833 2.90996L47.1833 4.40996C18.7833 -9.59004 -10.5167 22.31 5.5833 49.41C5.8833 49.91 6.4833 50.01 6.9833 49.81C7.4833 49.51 7.5833 48.91 7.3833 48.41C-7.6167 23.01 19.7833 -6.89004 46.3833 6.20996Z" fill="#6D4897" stroke="#6D4897"/>
</svg>
