<svg width="1730" height="590" viewBox="0 0 1730 590" fill="none" xmlns="http://www.w3.org/2000/svg">
<rect width="1730" height="590" fill="#93E0DD"/>
<path d="M138.8 141H204.74C227.14 141 243.38 146.32 253.46 156.96C263.54 167.6 268.58 183.98 268.58 206.1V219.96C268.58 236.2 265.92 249.08 260.6 258.6C255.28 267.84 246.46 274.42 234.14 278.34C260.46 285.62 273.62 306.62 273.62 341.34V366.12C273.62 412.04 251.22 435 206.42 435H138.8V141ZM171.56 265.74H196.76C210.48 265.74 220.42 262.94 226.58 257.34C233.02 251.74 236.24 241.52 236.24 226.68V209.46C236.24 196.3 233.72 186.64 228.68 180.48C223.64 174.04 215.38 170.82 203.9 170.82H171.56V265.74ZM171.56 405.18H206.42C229.66 405.18 241.28 391.88 241.28 365.28V339.24C241.28 323.28 238.06 312.08 231.62 305.64C225.18 298.92 214.68 295.56 200.12 295.56H171.56V405.18Z" fill="white"/>
<path d="M288.993 364.02V211.98C288.993 189.02 294.593 170.96 305.793 157.8C317.273 144.64 334.073 138.06 356.193 138.06C378.313 138.06 395.113 144.64 406.593 157.8C418.073 170.96 423.813 189.02 423.813 211.98V364.02C423.813 386.98 418.073 405.04 406.593 418.2C395.113 431.36 378.313 437.94 356.193 437.94C334.353 437.94 317.693 431.36 306.213 418.2C294.733 405.04 288.993 386.98 288.993 364.02ZM321.333 210.3V365.7C321.333 393.98 332.953 408.12 356.193 408.12C379.433 408.12 391.053 393.98 391.053 365.7V210.3C391.053 182.02 379.433 167.88 356.193 167.88C332.953 167.88 321.333 182.02 321.333 210.3Z" fill="white"/>
<path d="M442.995 141H511.875C534.275 141 550.935 147.44 561.855 160.32C573.055 172.92 578.655 190.84 578.655 214.08V362.34C578.655 385.3 573.055 403.22 561.855 416.1C550.935 428.7 534.275 435 511.875 435H442.995V141ZM475.755 405.18H511.455C534.695 405.18 546.315 391.32 546.315 363.6V212.4C546.315 184.68 534.555 170.82 511.035 170.82H475.755V405.18Z" fill="white"/>
<path d="M643.686 435V329.58L581.526 141H615.546L661.326 285.48L707.526 141H738.606L676.026 329.58V435H643.686Z" fill="white"/>
<path d="M816.946 157.38C827.866 144.5 844.106 138.06 865.666 138.06C887.226 138.06 903.466 144.64 914.386 157.8C925.586 170.68 931.186 188.6 931.186 211.56V219.54H900.106V209.88C900.106 181.88 888.906 167.88 866.506 167.88C844.106 167.88 832.906 181.74 832.906 209.46C832.906 219.82 835.286 229.48 840.046 238.44C845.086 247.12 851.246 254.54 858.526 260.7C865.806 266.58 873.646 273.3 882.046 280.86C890.726 288.14 898.706 295.28 905.986 302.28C913.266 309 919.286 317.82 924.046 328.74C929.086 339.66 931.606 351.56 931.606 364.44C931.606 387.4 926.006 405.46 914.806 418.62C903.606 431.5 887.086 437.94 865.246 437.94C843.406 437.94 826.886 431.5 815.686 418.62C804.766 405.46 799.306 387.4 799.306 364.44V347.64H829.966V366.12C829.966 394.12 841.446 408.12 864.406 408.12C887.366 408.12 898.846 394.12 898.846 366.12C898.846 357.16 897.026 348.9 893.386 341.34C889.746 333.78 884.986 327.06 879.106 321.18C873.506 315.3 867.206 309.56 860.206 303.96C853.206 298.36 846.206 292.48 839.206 286.32C832.206 280.16 825.766 273.72 819.886 267C814.286 260.28 809.666 252.16 806.026 242.64C802.386 233.12 800.566 222.76 800.566 211.56C800.566 188.32 806.026 170.26 816.946 157.38Z" fill="white"/>
<path d="M1103.42 198.54L1056.8 434.58H1025.3L976.575 200.64V435H948.015V141H993.795L1042.1 375.78L1088.72 141H1134.5V435H1103.42V198.54Z" fill="white"/>
<path d="M1264.04 375.78H1189.7L1178.36 435H1148.12L1204.4 141H1251.86L1308.14 435H1275.38L1264.04 375.78ZM1226.24 177.96L1193.9 347.64H1259.42L1226.24 177.96Z" fill="white"/>
<path d="M1321.95 141H1387.47C1410.15 141 1426.67 146.6 1437.03 157.8C1447.67 169 1452.99 185.8 1452.99 208.2V232.14C1452.99 264.62 1440.81 284.78 1416.45 292.62C1441.09 299.9 1453.41 320.34 1453.41 353.94V399.72C1453.41 415.96 1455.37 427.72 1459.29 435H1426.11C1422.47 426.88 1420.65 414.98 1420.65 399.3V353.1C1420.65 337.14 1417.01 325.94 1409.73 319.5C1402.73 312.78 1392.09 309.42 1377.81 309.42H1354.71V435H1321.95V141ZM1354.71 279.6H1379.07C1393.07 279.6 1403.43 276.66 1410.15 270.78C1417.15 264.9 1420.65 254.4 1420.65 239.28V211.14C1420.65 184.26 1409.31 170.82 1386.63 170.82H1354.71V279.6Z" fill="white"/>
<path d="M1550.24 435H1517.9V170.82H1463.72V141H1604.42V170.82H1550.24V435Z" fill="white"/>
</svg>
