<svg width="58" height="72" viewBox="0 0 58 72" fill="none" xmlns="http://www.w3.org/2000/svg">
<path d="M52.0848 55.3256C52.4379 54.5393 52.4642 53.6449 52.1578 52.8392L34.9878 7.65137C34.6815 6.84568 34.0676 6.19468 33.2813 5.84158C32.495 5.48848 31.6006 5.46221 30.795 5.76853L25.8624 7.64391C25.959 8.12483 25.8961 8.62661 25.6795 9.07153C25.4283 9.58762 24.9894 9.98819 24.4525 10.1913L24.4527 10.1912L24.3638 9.95752L24.4523 10.1914L52.0848 55.3256ZM52.0848 55.3256C51.7317 56.1119 51.0807 56.7258 50.275 57.0321L26.7201 65.9878C25.9144 66.2942 25.02 66.2679 24.2337 65.9148C23.4474 65.5617 22.8336 64.9107 22.5272 64.105L5.34785 18.9207C5.04152 18.115 5.0678 17.2206 5.4209 16.4343C5.774 15.648 6.425 15.0342 7.23068 14.7278L12.1632 12.8524M52.0848 55.3256L14.9096 13.8195L14.8204 13.586L14.9092 13.8197L14.9094 13.8196C14.3732 14.0245 13.779 14.0168 13.2484 13.7979C12.7909 13.6093 12.4106 13.276 12.1632 12.8524M12.1632 12.8524L12.3716 12.7732L12.2828 12.5395L12.0549 12.6422C12.0874 12.7145 12.1236 12.7846 12.1632 12.8524ZM5.98683 11.4563L5.98647 11.4564C4.31499 12.0949 2.96479 13.37 2.23182 15.0022C1.49885 16.6345 1.44288 18.4907 2.0762 20.1642L2.07633 20.1645L19.2557 65.3489L19.2558 65.3492C19.8943 67.0207 21.1694 68.3709 22.8016 69.1039C24.4339 69.8368 26.2901 69.8928 27.9636 69.2595L27.9639 69.2594L51.5189 60.3036L51.5192 60.3035C53.1907 59.665 54.5409 58.39 55.2739 56.7577C56.0068 55.1255 56.0628 53.2692 55.4295 51.5958L55.4294 51.5954L38.25 6.41107L38.2498 6.41071C37.6114 4.73922 36.3363 3.38903 34.7041 2.65606C33.0718 1.92308 31.2156 1.86712 29.5421 2.50043L29.6306 2.73425L29.5418 2.50057L5.98683 11.4563Z" fill="#6D4897" stroke="#6D4897" stroke-width="0.5"/>
</svg>
