<svg width="58" height="53" viewBox="0 0 58 53" fill="none" xmlns="http://www.w3.org/2000/svg">
<path d="M47.9225 0.66586C42.34 -0.978518 34.655 0.451376 29 6.9574C23.2725 0.379882 15.5875 -1.05001 10.0775 0.66586C3.8425 2.52472 0 8.02982 0 15.0363C0 30.4792 26.535 51.0696 27.6225 51.9991L29 53L30.3775 51.9276C31.5375 51.0696 58 30.4792 58 14.9648C58 8.02982 54.1575 2.52472 47.9225 0.66586ZM29 47.4234C21.025 40.9889 4.495 25.4745 4.495 15.0363C4.495 9.96018 7.0325 6.17095 11.3825 4.88405C12.3975 4.59807 13.4125 4.45508 14.5725 4.45508C18.705 4.45508 23.635 6.59992 27.1875 11.8905L29.0725 14.6073L30.9575 11.8905C35.525 5.17003 42.195 3.52565 46.7625 4.95554C51.04 6.24245 53.65 10.0317 53.65 15.1078C53.505 25.4745 36.975 40.9889 29 47.4234Z" fill="#6D4897"/>
</svg>
