<svg width="32" height="32" viewBox="0 0 32 32"  xmlns="http://www.w3.org/2000/svg">
<g clip-path="url(#clip0_317_251)">
<path fill-rule="evenodd" clip-rule="evenodd" d="M16.0091 0.00477228C18.2233 0.00477228 20.4377 -0.00547772 22.6519 0.00770978C24.7351 0.0201473 26.6916 0.49521 28.3867 1.76162C30.6005 3.41546 31.7333 5.67455 31.9442 8.40052C32.0184 9.35989 31.9953 10.3276 31.9966 11.2915C32.0016 15.0296 31.9988 18.7677 31.9984 22.5059C31.9983 24.0326 31.786 25.5233 31.1399 26.9194C29.8293 29.7514 27.5433 31.2995 24.5272 31.8361C23.8982 31.9479 23.2495 31.9897 22.6097 31.9916C18.193 32.0046 13.7763 32.0016 9.35959 31.997C7.06287 31.9947 4.96231 31.3882 3.17228 29.8981C1.35362 28.3844 0.393934 26.4046 0.0954024 24.0834C0.0439024 23.683 0.0123712 23.277 0.0119962 22.8736C0.00768366 18.2307 -0.0203476 13.5876 0.0251524 8.94514C0.0500274 6.40871 0.89459 4.15983 2.78278 2.3878C4.349 0.918053 6.25278 0.150085 8.36837 0.0749285C10.9122 -0.0154465 13.4618 0.0535223 16.009 0.0535223C16.009 0.037241 16.009 0.020991 16.0091 0.00477228ZM15.9841 29.0437C18.1147 29.0437 20.2452 29.0523 22.3757 29.0379C22.9329 29.0341 23.4982 29.0064 24.0449 28.9075C26.1333 28.53 27.721 27.4825 28.5531 25.4491C28.9758 24.4161 29.1139 23.3077 29.1319 22.2342C29.2018 18.0695 29.1624 13.9029 29.1575 9.73699C29.1569 9.28568 29.152 8.82933 29.0882 8.38402C28.8018 6.3844 27.935 4.74543 26.0947 3.74874C25.0675 3.19246 23.9525 2.98243 22.7934 2.98205C18.33 2.98074 13.8665 2.97943 9.40306 2.98477C8.99968 2.98527 8.59275 3.00758 8.19362 3.06368C5.92031 3.38287 4.24584 4.50324 3.40784 6.70743C3.06965 7.5969 2.96159 8.52893 2.9614 9.47521C2.96075 13.8315 2.95656 18.1878 2.96712 22.5442C2.9684 23.0772 3.00815 23.6178 3.10356 24.1415C3.52678 26.4651 4.82243 28.0622 7.1299 28.7044C7.89884 28.9183 8.72081 29.0127 9.52122 29.0289C11.6748 29.0721 13.8297 29.0436 15.9841 29.0437Z" />
<path fill-rule="evenodd" clip-rule="evenodd" d="M24.2469 15.9486C24.2449 20.5041 20.528 24.2094 15.9712 24.1983C11.4127 24.1873 7.74167 20.5078 7.73902 15.9474C7.73636 11.3921 11.4477 7.68644 16.0079 7.69141C20.5287 7.69629 24.2489 11.4247 24.2469 15.9486ZM15.9961 21.2242C18.9025 21.2264 21.2964 18.8343 21.2913 15.9328C21.2863 13.0513 18.8986 10.6591 16.0158 10.6474C13.1135 10.6356 10.7208 13.0204 10.7147 15.931C10.7085 18.8457 13.0793 21.2219 15.9961 21.2242Z" />
<path fill-rule="evenodd" clip-rule="evenodd" d="M24.5529 9.3548C23.521 9.34558 22.7076 8.51989 22.7109 7.48505C22.7142 6.43845 23.548 5.61786 24.6007 5.62505C25.6208 5.63211 26.4521 6.47405 26.449 7.49705C26.4459 8.53455 25.5991 9.36414 24.5529 9.3548Z"/>
</g>
<defs>
<clipPath id="clip0_317_251">
<rect width="32" height="32" fill="white"/>
</clipPath>
</defs>
</svg>
