<svg width="60" height="60" viewBox="0 0 60 60" fill="none" xmlns="http://www.w3.org/2000/svg">
<path d="M39.4202 14.8125C39.6102 15.0325 39.7302 15.1525 39.7302 15.1525C39.8237 15.2452 39.9345 15.3185 40.0563 15.3683C40.1782 15.4181 40.3086 15.4433 40.4402 15.4425H40.5802L41.0402 15.3525C41.7565 15.1939 42.4538 14.9593 43.1202 14.6525C43.856 14.3697 44.524 13.935 45.0805 13.3767C45.6371 12.8185 46.0697 12.1492 46.3502 11.4125C46.6387 10.5608 46.5922 9.63122 46.2202 8.81252C46.0375 8.40803 45.7723 8.04612 45.4417 7.74995C45.1111 7.45378 44.7223 7.22986 44.3002 7.09252C43.8404 6.93428 43.3463 6.90319 42.8702 7.00252C42.5519 6.63237 42.1414 6.35293 41.6802 6.19252C41.2595 6.05422 40.8147 6.00502 40.3739 6.04806C39.9332 6.0911 39.5062 6.22544 39.1202 6.44252C38.3397 6.87961 37.751 7.59311 37.4702 8.44252C37.2585 9.2079 37.2096 10.0092 37.3268 10.7946C37.4439 11.5801 37.7244 12.3322 38.1502 13.0025C38.509 13.6487 38.9347 14.2553 39.4202 14.8125ZM39.4202 9.11252C39.5397 8.73581 39.7968 8.418 40.1402 8.22252C40.3259 8.11621 40.5363 8.061 40.7502 8.06252C40.8727 8.06288 40.9943 8.08315 41.1102 8.12252C41.2202 8.12252 41.4102 8.29252 41.7002 8.73252C41.8231 8.92507 42.0082 9.06976 42.2246 9.14253C42.4411 9.2153 42.676 9.21177 42.8902 9.13252C43.1467 8.99302 43.4414 8.94039 43.7302 8.98252C43.8907 9.03417 44.0381 9.11988 44.1624 9.2338C44.2867 9.34771 44.3849 9.48713 44.4502 9.64252C44.6116 9.99873 44.6296 10.4034 44.5002 10.7725C44.302 11.2464 44.0077 11.6741 43.6359 12.0287C43.2642 12.3832 42.823 12.6569 42.3402 12.8325C41.8598 13.0467 41.3611 13.2174 40.8502 13.3425C40.5092 12.9391 40.2078 12.5037 39.9502 12.0425C39.6552 11.6213 39.4513 11.1431 39.3514 10.6386C39.2516 10.1342 39.258 9.6144 39.3702 9.11252H39.4202Z" fill="#6D4897" stroke="#6D4897"/>
<path d="M33.2804 28.0625C34.1438 28.6629 35.065 29.1755 36.0304 29.5925C36.2264 29.6793 36.4266 29.756 36.6304 29.8225C36.7323 29.8624 36.8409 29.8828 36.9504 29.8825C37.1527 29.8814 37.3505 29.8224 37.5204 29.7125C37.5204 29.7125 37.7204 29.5725 38.0304 29.3225C38.8539 28.6795 39.608 27.9522 40.2804 27.1525C41.0302 26.3542 41.6052 25.4083 41.9685 24.3751C42.3318 23.342 42.4755 22.2444 42.3904 21.1525C42.2642 19.9714 41.6762 18.8881 40.7546 18.1387C39.8329 17.3894 38.6524 17.0349 37.4704 17.1525C36.7549 17.2733 36.0888 17.596 35.5504 18.0825C34.9074 17.7483 34.182 17.606 33.4604 17.6725C32.2853 17.8618 31.233 18.5089 30.534 19.4722C29.8349 20.4356 29.546 21.6366 29.7304 22.8125C29.923 23.8869 30.3383 24.909 30.9497 25.8132C31.5611 26.7174 32.355 27.4836 33.2804 28.0625ZM33.6904 19.6725H33.8104C34.297 19.7294 34.7613 19.9083 35.1604 20.1925C35.3577 20.307 35.5883 20.3507 35.8139 20.3161C36.0394 20.2815 36.2464 20.1709 36.4004 20.0025C36.7369 19.5935 37.1851 19.2912 37.6904 19.1325C38.3501 19.0827 39.0027 19.2953 39.5065 19.7241C40.0102 20.153 40.3243 20.7633 40.3804 21.4225C40.4275 22.2381 40.3033 23.0546 40.0156 23.8194C39.728 24.5841 39.2834 25.2801 38.7104 25.8625C38.1311 26.5486 37.4845 27.1751 36.7804 27.7325C35.9542 27.3776 35.1667 26.9386 34.4304 26.4225C33.7274 26.005 33.1195 25.445 32.6459 24.7785C32.1723 24.1119 31.8434 23.3537 31.6804 22.5525C31.5695 21.9046 31.7183 21.2391 32.0945 20.7001C32.4707 20.1611 33.044 19.7919 33.6904 19.6725Z" fill="#6D4897" stroke="#6D4897"/>
<path d="M5.69035 21.4425C6.35002 21.3528 6.97792 21.1038 7.51977 20.717C8.06163 20.3302 8.50115 19.8172 8.80035 19.2225C9.63679 19.5587 10.5289 19.7351 11.4303 19.7425C11.8192 19.744 12.2075 19.7105 12.5903 19.6425C14.51 19.3351 16.2297 18.2797 17.3729 16.7072C18.5162 15.1348 18.9899 13.1734 18.6903 11.2525C18.6056 10.756 18.4681 10.2699 18.2803 9.80252C18.4248 9.67765 18.5465 9.5288 18.6403 9.36252C18.758 9.15013 18.8519 8.92545 18.9203 8.69252C19.7303 6.43252 18.0303 3.00252 15.3603 1.79252C13.7935 1.09067 12.0597 0.847931 10.3603 1.09252C8.92342 1.2189 7.52778 1.63917 6.26 2.32725C4.99222 3.01532 3.87932 3.95654 2.99035 5.09252C1.33035 7.43252 0.870345 10.5225 1.62035 14.2325L1.74035 15.0925C1.16072 15.9075 0.907415 16.91 1.03035 17.9025C1.16165 18.8957 1.65034 19.807 2.40499 20.466C3.15963 21.1249 4.12851 21.4863 5.13035 21.4825C5.31757 21.4788 5.50449 21.4654 5.69035 21.4425ZM15.7603 15.5325C14.9984 16.5899 13.8742 17.3301 12.6019 17.6122C11.3295 17.8943 9.9978 17.6987 8.86035 17.0625C8.73035 11.6025 12.1003 11.1625 15.0903 10.7925C15.5903 10.7325 16.0903 10.6625 16.4503 10.5925C16.5754 10.9147 16.6626 11.2503 16.7103 11.5925C16.9237 12.9797 16.5825 14.3951 15.7603 15.5325ZM3.87035 19.0525C3.41348 18.709 3.11142 18.1984 3.03035 17.6325C2.99051 17.3416 3.01365 17.0455 3.09818 16.7643C3.18272 16.483 3.32669 16.2233 3.52035 16.0025C3.60942 15.8951 3.67501 15.7701 3.7129 15.6358C3.75079 15.5015 3.76014 15.3607 3.74035 15.2225L3.56035 13.8925C2.91035 10.6925 3.26035 8.12252 4.56035 6.25252C5.29805 5.3468 6.20832 4.59664 7.23832 4.04559C8.26831 3.49455 9.3975 3.15359 10.5603 3.04252C10.9256 3.00327 11.2932 2.9899 11.6603 3.00252C12.6429 2.99046 13.616 3.19533 14.5103 3.60252C16.3103 4.45252 17.5103 6.86252 17.0303 8.03252V8.13252C17.0108 8.21605 16.9805 8.29671 16.9403 8.37252C16.8687 8.41885 16.7914 8.45582 16.7103 8.48252C16.1078 8.64604 15.4921 8.75646 14.8703 8.81252C11.7803 9.19252 6.59035 9.81252 6.87035 17.3925V17.7125C6.87035 17.9625 6.87035 18.2125 6.92035 18.4725C6.75819 18.7425 6.53738 18.9726 6.27427 19.1457C6.01116 19.3188 5.71248 19.4305 5.40035 19.4725C5.13022 19.5071 4.85591 19.4878 4.59329 19.4157C4.33067 19.3436 4.08495 19.2202 3.87035 19.0525Z" fill="#6D4897" stroke="#6D4897"/>
<path d="M47.1103 30.7625H43.6603C43.3951 30.7625 43.1407 30.8679 42.9532 31.0554C42.7656 31.243 42.6603 31.4973 42.6603 31.7625V37.8125C38.1103 37.5825 33.9403 39.3125 31.9203 42.1225H29.7103L23.4303 35.8425L23.3503 35.7925C23.2018 35.226 22.8446 34.7366 22.3503 34.4225L19.6303 32.7925C19.8303 32.3225 19.9903 31.8625 20.1103 31.5025C20.8003 29.4125 19.2803 26.7825 15.4503 23.5025C14.7703 22.9225 14.0503 22.3425 13.2803 21.7525C13.0164 21.5548 12.7313 21.3871 12.4303 21.2525H12.3303C11.6668 20.9652 10.9469 20.8322 10.2246 20.8633C9.50229 20.8945 8.79648 21.0891 8.16027 21.4325C7.5388 21.7517 7.00289 22.2151 6.59748 22.7841C6.19207 23.353 5.92898 24.0109 5.83027 24.7025C5.81525 24.9022 5.81525 25.1028 5.83027 25.3025V34.6525C5.84376 35.2224 5.69461 35.7844 5.40027 36.2725C4.13027 38.0025 4.03027 41.6225 4.03027 42.6825V50.0025C4.03027 50.2677 4.13563 50.5221 4.32317 50.7096C4.5107 50.8972 4.76506 51.0025 5.03027 51.0025H6.48027V58.0025C6.48027 58.2677 6.58563 58.5221 6.77317 58.7096C6.9607 58.8972 7.21506 59.0025 7.48027 59.0025C7.74549 59.0025 7.99984 58.8972 8.18738 58.7096C8.37492 58.5221 8.48027 58.2677 8.48027 58.0025V51.0025H14.4803V58.0025C14.4803 58.2677 14.5856 58.5221 14.7732 58.7096C14.9607 58.8972 15.2151 59.0025 15.4803 59.0025C15.7455 59.0025 15.9998 58.8972 16.1874 58.7096C16.3749 58.5221 16.4803 58.2677 16.4803 58.0025V51.0025H17.0603C17.4705 51.0308 17.8817 50.9654 18.2629 50.8112C18.644 50.657 18.9851 50.4181 19.2603 50.1125C20.2603 48.9225 19.8703 47.0325 19.3603 44.4225C18.8706 42.2418 18.6026 40.0172 18.5603 37.7825L20.2003 38.4925C20.4874 38.6174 20.7971 38.6821 21.1103 38.6825C21.4165 38.6832 21.7198 38.6234 22.003 38.5068C22.2861 38.3901 22.5434 38.2187 22.7603 38.0025L28.3003 43.5425V48.2625C28.3029 51.1084 29.4339 53.8371 31.4453 55.8504C33.4567 57.8637 36.1844 58.9972 39.0303 59.0025H48.2803C50.755 59.0044 53.1538 58.1484 55.0683 56.5804C56.9828 55.0123 58.2946 52.8291 58.7803 50.4025C58.7889 50.3731 58.7889 50.3419 58.7803 50.3125C58.7838 50.2693 58.7838 50.2258 58.7803 50.1825V50.0425C58.7858 49.986 58.7858 49.9291 58.7803 49.8725L59.0303 43.1225V42.6825C59.025 39.5228 57.7674 36.4939 55.5331 34.2597C53.2989 32.0254 50.27 30.7678 47.1103 30.7625ZM18.1703 30.8825C18.0703 31.1825 17.9603 31.4825 17.8603 31.7625L17.0303 31.2425C17.1022 31.152 17.1596 31.0508 17.2003 30.9425C17.279 30.6885 17.2612 30.4143 17.1503 30.1725L14.8803 25.6225C18.3203 28.8325 18.3403 30.3625 18.1703 30.8825ZM7.81027 24.9425C7.8507 24.5603 7.98271 24.1935 8.19509 23.8732C8.40747 23.5529 8.69396 23.2885 9.03027 23.1025C9.36487 22.928 9.73099 22.8222 10.1071 22.7913C10.4832 22.7604 10.8617 22.805 11.2203 22.9225L14.8303 30.1725H14.7703L13.6703 30.7225L10.6703 32.2125L7.79027 26.3525V25.3025C7.79027 25.1825 7.80027 25.0625 7.81027 24.9425ZM16.6103 36.9425C16.5537 39.5893 16.8258 42.2328 17.4203 44.8125C17.7503 46.4925 18.1203 48.3925 17.7403 48.8125C17.551 48.9447 17.3193 49.0017 17.0903 48.9725H6.03027V42.6825C6.03027 40.8125 6.33027 38.3725 7.03027 37.4125C7.56143 36.5917 7.83322 35.63 7.81027 34.6525V30.8425L9.38027 34.0025C9.4984 34.2372 9.70414 34.416 9.95302 34.5002C10.2019 34.5844 10.4739 34.5673 10.7103 34.4525L12.0303 33.8425L12.6003 35.0025C12.7067 35.1986 12.8757 35.3535 13.0803 35.4425L16.6103 36.9425ZM21.4003 36.5525C21.3614 36.6115 21.303 36.6548 21.2353 36.6749C21.1676 36.6951 21.095 36.6907 21.0303 36.6625L14.1903 33.7025L13.7803 33.0025L14.9703 32.4125L17.7903 34.1025L21.2503 36.1725C21.3173 36.2141 21.3666 36.2789 21.3887 36.3546C21.4109 36.4302 21.4043 36.5114 21.3703 36.5825L21.4003 36.5525ZM42.6603 39.8225V42.1325H34.6603C36.9529 40.4057 39.7995 39.5802 42.6603 39.8125V39.8225ZM48.2903 57.0025H39.0303C36.7131 56.9999 34.4916 56.0782 32.8531 54.4397C31.2146 52.8012 30.2929 50.5797 30.2903 48.2625V44.1225H51.1403C51.4055 44.1225 51.6598 44.0172 51.8474 43.8296C52.0349 43.6421 52.1403 43.3877 52.1403 43.1225C52.1403 42.8573 52.0349 42.603 51.8474 42.4154C51.6598 42.2279 51.4055 42.1225 51.1403 42.1225H44.6603V32.7625H47.1103C49.7404 32.7652 52.2621 33.8112 54.1218 35.671C55.9816 37.5307 57.0276 40.0524 57.0303 42.6825L56.8803 49.8225C56.517 51.8363 55.4578 53.6585 53.8877 54.9708C52.3177 56.2831 50.3366 57.0022 48.2903 57.0025Z" fill="#6D4897" stroke="#6D4897"/>
<path d="M50.0903 49.0024H37.3103C37.0451 49.0024 36.7907 49.1078 36.6032 49.2953C36.4157 49.4829 36.3103 49.7372 36.3103 50.0024C36.3103 50.2677 36.4157 50.522 36.6032 50.7095C36.7907 50.8971 37.0451 51.0024 37.3103 51.0024H50.0903C50.3555 51.0024 50.6099 50.8971 50.7974 50.7095C50.9849 50.522 51.0903 50.2677 51.0903 50.0024C51.0903 49.7372 50.9849 49.4829 50.7974 49.2953C50.6099 49.1078 50.3555 49.0024 50.0903 49.0024Z" fill="#6D4897" stroke="#6D4897"/>
</svg>
