<svg width="59" height="59" viewBox="0 0 59 59" fill="none" xmlns="http://www.w3.org/2000/svg">
<path d="M29.5 0C13.2326 0 0 13.2327 0 29.5C0 45.7673 13.2326 59 29.5 59C45.7674 59 59 45.7673 59 29.5C59 13.2327 45.7674 0 29.5 0ZM29.5 4.21429C43.4897 4.21429 54.7857 15.5103 54.7857 29.5C54.7857 43.4897 43.4897 54.7857 29.5 54.7857C15.5103 54.7857 4.21429 43.4897 4.21429 29.5C4.21429 15.5103 15.5103 4.21429 29.5 4.21429ZM21.9933 14.0257C21.0862 14.0448 20.2035 14.3013 19.4472 14.75C17.9345 15.6474 16.9003 17.3568 16.8571 19.2935V39.6406C16.9007 41.5771 17.9367 43.282 19.4472 44.1841C20.9576 45.0863 22.9776 45.1801 24.693 44.2502C30.5648 40.8737 36.4329 37.4488 42.2965 34.0437C43.8608 33.1352 44.9524 31.4125 44.9524 29.4563C44.9524 27.5001 43.8609 25.7772 42.2965 24.8688C36.3881 21.5521 30.623 17.9478 24.693 14.6843C23.7807 14.2442 22.8317 14.0165 21.9933 14.0258V14.0257ZM22.1469 18.24C22.3146 18.2574 22.4885 18.325 22.6957 18.3936L40.1894 28.5122C40.5365 28.7138 40.7381 29.0288 40.7381 29.4561C40.7381 29.8834 40.5366 30.1982 40.1894 30.3999L22.6957 40.5405C22.229 40.7936 21.9144 40.7383 21.6201 40.5623C21.3355 40.3922 21.0971 40.1114 21.0714 39.5965V19.3373C21.0967 18.822 21.3154 18.5393 21.5982 18.3715C21.8179 18.2552 21.9793 18.2224 22.1469 18.2398V18.24Z" fill="#6D4897"/>
</svg>
