<svg width="61" height="66" viewBox="0 0 61 66" fill="none" xmlns="http://www.w3.org/2000/svg">
<path d="M3.24095 53.9766C3.04095 57.2766 2.84095 60.4766 1.14095 63.5766C0.840954 64.0766 1.04095 64.6766 1.54095 64.8766C2.04095 65.0766 2.64095 64.9766 2.84095 64.4766C4.74095 60.9766 4.94095 57.4766 5.14095 54.0766C6.04095 40.1766 9.64095 47.1766 9.54095 31.4766C9.54095 27.3766 9.44095 23.1766 11.141 18.0766C11.941 15.5766 13.941 13.7766 16.441 13.0766C20.841 11.9766 23.741 10.0766 25.041 7.37664C26.541 4.37664 25.441 1.67664 25.341 1.57664C25.141 1.07664 24.541 0.876641 24.041 1.07664C23.541 1.27664 23.341 1.87664 23.541 2.37664C23.541 2.37664 24.341 4.37664 23.241 6.57664C22.141 8.67664 19.741 10.2766 15.841 11.2766C12.641 12.0766 10.141 14.3766 9.14095 17.5766C7.44095 22.9766 7.44095 27.5766 7.44095 31.5766C7.74095 46.8766 4.14095 39.2766 3.24095 53.9766Z" fill="#6D4897" stroke="#6D4897"/>
<path d="M13.941 64.8768C14.441 65.0768 15.041 64.9768 15.241 64.4768C22.241 51.0768 17.741 35.9768 17.541 35.3768C17.441 34.9768 16.941 34.6768 16.541 34.6768C16.041 34.6768 15.741 35.0768 15.641 35.4768C12.741 57.2768 7.64102 63.1768 7.54102 63.2768C7.14102 63.6768 7.24102 64.2768 7.64102 64.6768C8.04102 65.0768 8.64102 64.9768 9.04102 64.5768C9.24102 64.3768 13.741 59.2768 16.741 41.1768C17.441 46.6768 17.641 55.4768 13.541 63.4768C13.341 64.0768 13.541 64.5768 13.941 64.8768Z" fill="#6D4897" stroke="#6D4897"/>
<path d="M58.441 53.9766C57.541 39.1766 53.941 46.9766 54.041 31.5766C54.041 27.4766 54.141 22.9766 52.341 17.5766C51.341 14.4766 48.841 12.0766 45.641 11.2766C41.841 10.2766 39.341 8.77664 38.241 6.67664C37.141 4.47664 37.941 2.47664 37.941 2.37664C38.141 1.87664 37.941 1.27664 37.441 1.07664C36.941 0.876641 36.341 1.07664 36.141 1.57664C36.141 1.67664 34.941 4.47664 36.441 7.37664C37.741 9.97664 40.641 11.9766 45.041 13.0766C47.541 13.6766 49.541 15.5766 50.341 18.0766C51.941 23.1766 51.941 27.3766 51.941 31.4766C51.841 47.2766 55.441 40.0766 56.341 54.0766C56.541 57.4766 56.741 60.9766 58.641 64.4766C58.941 64.9766 59.541 65.0766 59.941 64.8766C60.441 64.5766 60.541 64.0766 60.341 63.5766C58.841 60.4766 58.641 57.2766 58.441 53.9766Z" fill="#6D4897" stroke="#6D4897"/>
<path d="M52.741 64.6768C53.141 65.0768 53.741 65.0768 54.141 64.6768C54.541 64.2768 54.541 63.6768 54.241 63.2768C54.141 63.1768 48.941 57.2768 46.041 35.4768C45.941 34.9768 45.641 34.6768 45.141 34.6768C44.641 34.6768 44.241 34.8768 44.141 35.3768C43.941 35.9768 39.441 51.0768 46.441 64.4768C46.641 64.9768 47.241 65.1768 47.741 64.8768C48.241 64.6768 48.441 64.0768 48.141 63.5768C43.941 55.5768 44.241 46.7768 44.941 41.2768C47.941 59.3768 52.541 64.4768 52.741 64.6768Z" fill="#6D4897" stroke="#6D4897"/>
<path d="M31.8409 4.47661C31.6409 3.97661 31.1409 3.67661 30.6409 3.87661C30.1409 4.07661 29.8409 4.57661 30.0409 5.07661C30.0409 5.07661 30.2409 5.57661 30.4409 6.47661C30.5409 6.97661 31.1409 7.27661 31.6409 7.17661C32.1409 6.97661 32.4409 6.47661 32.3409 5.97661C32.0409 5.07661 31.8409 4.47661 31.8409 4.47661Z" fill="#6D4897" stroke="#6D4897"/>
<path d="M29.8409 54.3766C30.3409 54.2766 30.7409 53.7766 30.6409 53.2766C30.5409 52.2766 30.4409 51.3766 30.3409 50.3766C30.3409 49.8766 29.8409 49.4766 29.3409 49.4766C28.8409 49.4766 28.4409 49.9766 28.4409 50.4766C28.5409 51.4766 28.6409 52.4766 28.7409 53.5766C28.7409 54.0766 29.2409 54.3766 29.8409 54.3766Z" fill="#6D4897" stroke="#6D4897"/>
<path d="M30.0411 59.4766C30.2411 59.9766 30.7411 60.2766 31.2411 60.0766C31.7411 59.8766 32.0411 59.3766 31.8411 58.8766C31.5411 57.9766 31.3411 56.9766 31.1411 56.0766C31.0411 55.5766 30.5411 55.2766 29.9411 55.3766C29.4411 55.4766 29.0411 55.9766 29.2411 56.5766C29.4411 57.5766 29.7411 58.5766 30.0411 59.4766Z" fill="#6D4897" stroke="#6D4897"/>
<path d="M29.7409 38.2765C29.4409 39.2765 29.2409 40.2765 29.0409 41.2765C28.9409 41.7765 29.2409 42.2765 29.8409 42.3765C30.3409 42.4765 30.8409 42.1765 30.9409 41.5765C31.1409 40.5765 31.3409 39.6765 31.6409 38.7765C31.8409 38.2765 31.5409 37.6765 30.9409 37.5765C30.3409 37.4765 29.8409 37.7765 29.7409 38.2765Z" fill="#6D4897" stroke="#6D4897"/>
<path d="M31.9408 8.17666C31.4408 8.27666 31.1408 8.77666 31.2408 9.37666C31.4408 10.2767 31.6408 11.1767 31.8408 12.2767C31.9408 12.7767 32.4408 13.1767 32.9408 13.0767C33.4408 12.9767 33.8408 12.4767 33.7408 11.9767C33.5408 10.8767 33.3408 9.87667 33.1408 8.97667C32.9408 8.37667 32.4408 8.07666 31.9408 8.17666Z" fill="#6D4897" stroke="#6D4897"/>
<path d="M28.5411 44.2766C28.4411 45.2766 28.3411 46.2766 28.3411 47.3766C28.3411 47.8766 28.7411 48.3766 29.2411 48.3766C29.7411 48.3766 30.2411 47.9766 30.2411 47.4766C30.2411 46.4766 30.3411 45.4766 30.4411 44.5766C30.5411 44.0766 30.1411 43.5766 29.5411 43.4766C29.0411 43.3766 28.5411 43.7766 28.5411 44.2766Z" fill="#6D4897" stroke="#6D4897"/>
<path d="M32.741 31.8766C32.241 31.7766 31.641 32.0766 31.541 32.5766C31.241 33.4766 30.941 34.4766 30.641 35.3766C30.441 35.8766 30.741 36.4766 31.241 36.5766C31.741 36.7766 32.341 36.4766 32.441 35.9766C32.741 34.9766 33.141 33.9766 33.341 33.0766C33.641 32.5766 33.341 32.0766 32.741 31.8766Z" fill="#6D4897" stroke="#6D4897"/>
<path d="M34.1409 30.0766C34.3409 29.0766 34.5409 28.0766 34.6409 27.0766C34.7409 26.5766 34.3409 26.0766 33.8409 25.9766C33.3409 25.8766 32.8409 26.2766 32.7409 26.7766C32.6409 27.6766 32.4409 28.6766 32.2409 29.6766C32.1409 30.1766 32.4409 30.6766 33.0409 30.7766C33.5409 30.9766 34.0409 30.6766 34.1409 30.0766Z" fill="#6D4897" stroke="#6D4897"/>
<path d="M33.1409 14.0767C32.6409 14.1767 32.2409 14.6767 32.3409 15.1767C32.5409 16.1767 32.6409 17.1767 32.7409 18.0767C32.8409 18.5767 33.2409 18.9767 33.8409 18.9767C34.3409 18.8767 34.7409 18.4767 34.7409 17.8767C34.6409 16.8767 34.5409 15.8767 34.3409 14.8767C34.1409 14.3767 33.6409 13.9767 33.1409 14.0767Z" fill="#6D4897" stroke="#6D4897"/>
<path d="M34.8409 20.8766C34.8409 20.3766 34.3409 19.9766 33.8409 19.9766C33.3409 19.9766 32.9409 20.4766 32.9409 20.9766C33.0409 21.9766 33.0409 22.9766 32.9409 23.8766C32.9409 24.3766 33.3409 24.8766 33.8409 24.8766C34.3409 24.8766 34.7409 24.4766 34.8409 23.9766C34.9409 23.0766 34.9409 21.9766 34.8409 20.8766Z" fill="#6D4897" stroke="#6D4897"/>
<path d="M31.5411 63.8767C31.7411 64.3767 32.3411 64.5767 32.8411 64.3767C33.3411 64.1767 33.5411 63.5767 33.3411 63.0767C33.1411 62.6767 32.9411 62.1767 32.8411 61.7767C32.6411 61.2767 32.0411 60.9767 31.5411 61.1767C31.0411 61.3767 30.7411 61.9767 30.9411 62.4767C31.2411 62.8767 31.3411 63.3767 31.5411 63.8767Z" fill="#6D4897" stroke="#6D4897"/>
</svg>
