<svg width="55" height="62" viewBox="0 0 55 62" fill="#6d4897" xmlns="http://www.w3.org/2000/svg">
<mask id="path-1-outside-1_332_502" maskUnits="userSpaceOnUse" x="0" y="0" width="55" height="62" fill="#6d4897">
<rect fill="white" width="55" height="62"/>
<path d="M27.607 1C25.7382 1 23.8521 1.29065 22.3655 2.49148C20.8789 3.6923 20.0431 5.7143 20.0431 8.41477C20.0431 11.1153 20.8009 13.5999 22.1098 15.4673C23.4187 17.3347 25.3695 18.6207 27.607 18.6207C29.8445 18.6207 31.7952 17.3347 33.1041 15.4673C34.4131 13.5999 35.1709 11.1153 35.1709 8.41477C35.1709 5.7143 34.3351 3.6923 32.8485 2.49148C31.3619 1.29065 29.4758 1 27.607 1ZM27.607 3.72727C29.1618 3.72727 30.3869 4.01068 31.1439 4.62216C31.9009 5.23364 32.4436 6.23085 32.4436 8.41477C32.4436 10.5987 31.8016 12.5571 30.8669 13.8906C29.9323 15.2241 28.7931 15.8935 27.607 15.8935C26.4209 15.8935 25.2817 15.2241 24.347 13.8906C23.4124 12.5571 22.7703 10.5987 22.7703 8.41477C22.7703 6.23085 23.3131 5.23364 24.0701 4.62216C24.827 4.01068 26.0522 3.72727 27.607 3.72727ZM21.5132 20.9219C21.3433 20.9335 21.1771 20.9769 21.0232 21.0497C14.7981 23.8804 12.8354 28.9559 11.0516 32.9815C10.1597 34.9944 9.30281 36.7435 8.02602 38.0526C6.74924 39.3615 5.07121 40.3199 2.20926 40.6946C2.02998 40.715 1.85653 40.7709 1.69898 40.8588C1.54143 40.9468 1.40289 41.0651 1.29141 41.207C1.17993 41.3489 1.09771 41.5115 1.04953 41.6854C1.00134 41.8593 0.988141 42.041 1.0107 42.2201C1.03325 42.3991 1.09111 42.5719 1.18092 42.7284C1.27073 42.8849 1.39071 43.022 1.5339 43.1318C1.67709 43.2416 1.84065 43.3219 2.0151 43.368C2.18955 43.4142 2.37142 43.4252 2.55017 43.4006C5.8939 42.9629 8.28169 41.6959 9.96494 39.9702C11.6482 38.2445 12.6293 36.1548 13.5445 34.0895C15.3748 29.959 16.8195 25.9677 22.1524 23.5426C22.455 23.4191 22.7031 23.1911 22.8516 22.9C23.0002 22.609 23.0393 22.2743 22.9619 21.9569C22.8844 21.6394 22.6956 21.3603 22.4297 21.1704C22.1639 20.9804 21.8386 20.8922 21.5132 20.9219V20.9219ZM33.5303 20.9219C33.2204 20.9349 32.9242 21.0533 32.6906 21.2573C32.4569 21.4614 32.2999 21.739 32.2453 22.0443C32.1906 22.3497 32.2417 22.6645 32.3901 22.9369C32.5385 23.2093 32.7754 23.4229 33.0615 23.5426C38.3945 25.9677 39.8392 29.959 41.6695 34.0895C42.5846 36.1548 43.5658 38.2445 45.249 39.9702C46.9323 41.6959 49.3201 42.9629 52.6638 43.4006C52.8426 43.4252 53.0244 43.4142 53.1989 43.368C53.3733 43.3219 53.5369 43.2416 53.6801 43.1318C53.8233 43.022 53.9432 42.8849 54.0331 42.7284C54.1229 42.5719 54.1807 42.3991 54.2033 42.2201C54.2258 42.041 54.2126 41.8593 54.1645 41.6854C54.1163 41.5115 54.0341 41.3489 53.9226 41.207C53.8111 41.0651 53.6726 40.9468 53.515 40.8588C53.3574 40.7709 53.184 40.715 53.0047 40.6946C50.1428 40.3199 48.4647 39.3615 47.188 38.0526C45.9112 36.7435 45.0543 34.9944 44.1624 32.9815C42.3786 28.9559 40.4158 23.8804 34.1908 21.0497C33.9848 20.9526 33.7577 20.9087 33.5303 20.9219V20.9219ZM19.7022 36.2841C19.5118 36.2833 19.3234 36.3223 19.149 36.3987C18.9747 36.4751 18.8182 36.5871 18.6898 36.7276C18.5614 36.8681 18.4637 37.0339 18.4032 37.2144C18.3427 37.3949 18.3207 37.586 18.3385 37.7756C18.471 39.4306 18.619 41.4125 18.3811 43.1023C18.1548 44.71 17.5972 45.9046 16.5274 46.6818C13.5574 47.2466 10.3969 47.1787 6.96068 49.1108C5.14553 50.1313 3.94733 51.3792 3.42375 52.8182C2.90017 54.2572 3.13893 55.7944 3.84989 57.0156C5.27181 59.4583 8.3065 61 11.6695 61C14.8629 61 18.7978 59.3304 22.7703 57.7614C22.801 57.7491 22.8249 57.7303 22.8556 57.7188H22.8769C22.9883 57.7473 23.1028 57.7616 23.2178 57.7614C26.1687 57.6208 29.794 58.3876 33.3811 59.2315C36.9682 60.0755 40.5025 61 43.5445 61C46.9075 61 49.9422 59.4583 51.3641 57.0156C52.0751 55.7944 52.3138 54.2572 51.7902 52.8182C51.2667 51.3792 50.0684 50.1313 48.2533 49.1108C44.8171 47.1787 41.6565 47.2466 38.6865 46.6818C37.6168 45.9046 37.0592 44.71 36.8328 43.1023C36.595 41.4125 36.7429 39.4306 36.8755 37.7756C36.8894 37.5965 36.868 37.4164 36.8124 37.2456C36.7568 37.0748 36.6681 36.9166 36.5514 36.7801C36.4347 36.6436 36.2922 36.5314 36.1321 36.45C35.972 36.3685 35.7974 36.3194 35.6184 36.3054C35.4393 36.2914 35.2592 36.3128 35.0884 36.3684C34.9176 36.424 34.7594 36.5127 34.6229 36.6295C34.4864 36.7462 34.3742 36.8887 34.2928 37.0488C34.2113 37.2089 34.1622 37.3834 34.1482 37.5625C34.0161 39.2124 33.8291 41.3494 34.1269 43.4645C34.4246 45.5797 35.2762 47.8076 37.3229 49.1321C37.4658 49.2247 37.6248 49.2898 37.7917 49.3239C41.2793 50.0531 44.0551 49.8701 46.911 51.4759C48.3396 52.2791 48.9956 53.1021 49.2334 53.7557C49.4712 54.4093 49.3815 54.9738 48.999 55.6307C48.2342 56.9445 46.0219 58.2727 43.5445 58.2727C41.0885 58.2727 37.6384 57.4194 34.0203 56.5682C32.3923 56.1852 30.7156 55.8149 29.0559 55.5241C30.5619 55.0628 31.9756 54.6882 32.9337 54.6719C33.2954 54.6662 33.64 54.5171 33.8917 54.2574C34.1434 53.9977 34.2817 53.6486 34.276 53.2869C34.2704 52.9253 34.1213 52.5807 33.8616 52.3289C33.6018 52.0772 33.2527 51.939 32.8911 51.9446C29.6894 51.9991 25.7383 53.6581 21.7689 55.2259C17.7995 56.7937 13.7994 58.2727 11.6695 58.2727C9.19206 58.2727 6.9798 56.9445 6.21494 55.6307C5.83251 54.9738 5.74276 54.4093 5.98057 53.7557C6.21838 53.1021 6.87442 52.2791 8.30301 51.4759C11.1589 49.8701 13.9347 50.0531 17.4223 49.3239C17.5892 49.2898 17.7482 49.2247 17.8911 49.1321C19.9378 47.8076 20.7894 45.5797 21.0871 43.4645C21.3848 41.3494 21.1979 39.2124 21.0658 37.5625C21.0441 37.2158 20.8908 36.8905 20.6374 36.6529C20.384 36.4154 20.0495 36.2834 19.7022 36.2841V36.2841Z"/>
</mask>
<path d="M27.607 1C25.7382 1 23.8521 1.29065 22.3655 2.49148C20.8789 3.6923 20.0431 5.7143 20.0431 8.41477C20.0431 11.1153 20.8009 13.5999 22.1098 15.4673C23.4187 17.3347 25.3695 18.6207 27.607 18.6207C29.8445 18.6207 31.7952 17.3347 33.1041 15.4673C34.4131 13.5999 35.1709 11.1153 35.1709 8.41477C35.1709 5.7143 34.3351 3.6923 32.8485 2.49148C31.3619 1.29065 29.4758 1 27.607 1ZM27.607 3.72727C29.1618 3.72727 30.3869 4.01068 31.1439 4.62216C31.9009 5.23364 32.4436 6.23085 32.4436 8.41477C32.4436 10.5987 31.8016 12.5571 30.8669 13.8906C29.9323 15.2241 28.7931 15.8935 27.607 15.8935C26.4209 15.8935 25.2817 15.2241 24.347 13.8906C23.4124 12.5571 22.7703 10.5987 22.7703 8.41477C22.7703 6.23085 23.3131 5.23364 24.0701 4.62216C24.827 4.01068 26.0522 3.72727 27.607 3.72727ZM21.5132 20.9219C21.3433 20.9335 21.1771 20.9769 21.0232 21.0497C14.7981 23.8804 12.8354 28.9559 11.0516 32.9815C10.1597 34.9944 9.30281 36.7435 8.02602 38.0526C6.74924 39.3615 5.07121 40.3199 2.20926 40.6946C2.02998 40.715 1.85653 40.7709 1.69898 40.8588C1.54143 40.9468 1.40289 41.0651 1.29141 41.207C1.17993 41.3489 1.09771 41.5115 1.04953 41.6854C1.00134 41.8593 0.988141 42.041 1.0107 42.2201C1.03325 42.3991 1.09111 42.5719 1.18092 42.7284C1.27073 42.8849 1.39071 43.022 1.5339 43.1318C1.67709 43.2416 1.84065 43.3219 2.0151 43.368C2.18955 43.4142 2.37142 43.4252 2.55017 43.4006C5.8939 42.9629 8.28169 41.6959 9.96494 39.9702C11.6482 38.2445 12.6293 36.1548 13.5445 34.0895C15.3748 29.959 16.8195 25.9677 22.1524 23.5426C22.455 23.4191 22.7031 23.1911 22.8516 22.9C23.0002 22.609 23.0393 22.2743 22.9619 21.9569C22.8844 21.6394 22.6956 21.3603 22.4297 21.1704C22.1639 20.9804 21.8386 20.8922 21.5132 20.9219V20.9219ZM33.5303 20.9219C33.2204 20.9349 32.9242 21.0533 32.6906 21.2573C32.4569 21.4614 32.2999 21.739 32.2453 22.0443C32.1906 22.3497 32.2417 22.6645 32.3901 22.9369C32.5385 23.2093 32.7754 23.4229 33.0615 23.5426C38.3945 25.9677 39.8392 29.959 41.6695 34.0895C42.5846 36.1548 43.5658 38.2445 45.249 39.9702C46.9323 41.6959 49.3201 42.9629 52.6638 43.4006C52.8426 43.4252 53.0244 43.4142 53.1989 43.368C53.3733 43.3219 53.5369 43.2416 53.6801 43.1318C53.8233 43.022 53.9432 42.8849 54.0331 42.7284C54.1229 42.5719 54.1807 42.3991 54.2033 42.2201C54.2258 42.041 54.2126 41.8593 54.1645 41.6854C54.1163 41.5115 54.0341 41.3489 53.9226 41.207C53.8111 41.0651 53.6726 40.9468 53.515 40.8588C53.3574 40.7709 53.184 40.715 53.0047 40.6946C50.1428 40.3199 48.4647 39.3615 47.188 38.0526C45.9112 36.7435 45.0543 34.9944 44.1624 32.9815C42.3786 28.9559 40.4158 23.8804 34.1908 21.0497C33.9848 20.9526 33.7577 20.9087 33.5303 20.9219V20.9219ZM19.7022 36.2841C19.5118 36.2833 19.3234 36.3223 19.149 36.3987C18.9747 36.4751 18.8182 36.5871 18.6898 36.7276C18.5614 36.8681 18.4637 37.0339 18.4032 37.2144C18.3427 37.3949 18.3207 37.586 18.3385 37.7756C18.471 39.4306 18.619 41.4125 18.3811 43.1023C18.1548 44.71 17.5972 45.9046 16.5274 46.6818C13.5574 47.2466 10.3969 47.1787 6.96068 49.1108C5.14553 50.1313 3.94733 51.3792 3.42375 52.8182C2.90017 54.2572 3.13893 55.7944 3.84989 57.0156C5.27181 59.4583 8.3065 61 11.6695 61C14.8629 61 18.7978 59.3304 22.7703 57.7614C22.801 57.7491 22.8249 57.7303 22.8556 57.7188H22.8769C22.9883 57.7473 23.1028 57.7616 23.2178 57.7614C26.1687 57.6208 29.794 58.3876 33.3811 59.2315C36.9682 60.0755 40.5025 61 43.5445 61C46.9075 61 49.9422 59.4583 51.3641 57.0156C52.0751 55.7944 52.3138 54.2572 51.7902 52.8182C51.2667 51.3792 50.0684 50.1313 48.2533 49.1108C44.8171 47.1787 41.6565 47.2466 38.6865 46.6818C37.6168 45.9046 37.0592 44.71 36.8328 43.1023C36.595 41.4125 36.7429 39.4306 36.8755 37.7756C36.8894 37.5965 36.868 37.4164 36.8124 37.2456C36.7568 37.0748 36.6681 36.9166 36.5514 36.7801C36.4347 36.6436 36.2922 36.5314 36.1321 36.45C35.972 36.3685 35.7974 36.3194 35.6184 36.3054C35.4393 36.2914 35.2592 36.3128 35.0884 36.3684C34.9176 36.424 34.7594 36.5127 34.6229 36.6295C34.4864 36.7462 34.3742 36.8887 34.2928 37.0488C34.2113 37.2089 34.1622 37.3834 34.1482 37.5625C34.0161 39.2124 33.8291 41.3494 34.1269 43.4645C34.4246 45.5797 35.2762 47.8076 37.3229 49.1321C37.4658 49.2247 37.6248 49.2898 37.7917 49.3239C41.2793 50.0531 44.0551 49.8701 46.911 51.4759C48.3396 52.2791 48.9956 53.1021 49.2334 53.7557C49.4712 54.4093 49.3815 54.9738 48.999 55.6307C48.2342 56.9445 46.0219 58.2727 43.5445 58.2727C41.0885 58.2727 37.6384 57.4194 34.0203 56.5682C32.3923 56.1852 30.7156 55.8149 29.0559 55.5241C30.5619 55.0628 31.9756 54.6882 32.9337 54.6719C33.2954 54.6662 33.64 54.5171 33.8917 54.2574C34.1434 53.9977 34.2817 53.6486 34.276 53.2869C34.2704 52.9253 34.1213 52.5807 33.8616 52.3289C33.6018 52.0772 33.2527 51.939 32.8911 51.9446C29.6894 51.9991 25.7383 53.6581 21.7689 55.2259C17.7995 56.7937 13.7994 58.2727 11.6695 58.2727C9.19206 58.2727 6.9798 56.9445 6.21494 55.6307C5.83251 54.9738 5.74276 54.4093 5.98057 53.7557C6.21838 53.1021 6.87442 52.2791 8.30301 51.4759C11.1589 49.8701 13.9347 50.0531 17.4223 49.3239C17.5892 49.2898 17.7482 49.2247 17.8911 49.1321C19.9378 47.8076 20.7894 45.5797 21.0871 43.4645C21.3848 41.3494 21.1979 39.2124 21.0658 37.5625C21.0441 37.2158 20.8908 36.8905 20.6374 36.6529C20.384 36.4154 20.0495 36.2834 19.7022 36.2841V36.2841Z" fill="#6D4897"/>
<path d="M27.607 1C25.7382 1 23.8521 1.29065 22.3655 2.49148C20.8789 3.6923 20.0431 5.7143 20.0431 8.41477C20.0431 11.1153 20.8009 13.5999 22.1098 15.4673C23.4187 17.3347 25.3695 18.6207 27.607 18.6207C29.8445 18.6207 31.7952 17.3347 33.1041 15.4673C34.4131 13.5999 35.1709 11.1153 35.1709 8.41477C35.1709 5.7143 34.3351 3.6923 32.8485 2.49148C31.3619 1.29065 29.4758 1 27.607 1ZM27.607 3.72727C29.1618 3.72727 30.3869 4.01068 31.1439 4.62216C31.9009 5.23364 32.4436 6.23085 32.4436 8.41477C32.4436 10.5987 31.8016 12.5571 30.8669 13.8906C29.9323 15.2241 28.7931 15.8935 27.607 15.8935C26.4209 15.8935 25.2817 15.2241 24.347 13.8906C23.4124 12.5571 22.7703 10.5987 22.7703 8.41477C22.7703 6.23085 23.3131 5.23364 24.0701 4.62216C24.827 4.01068 26.0522 3.72727 27.607 3.72727ZM21.5132 20.9219C21.3433 20.9335 21.1771 20.9769 21.0232 21.0497C14.7981 23.8804 12.8354 28.9559 11.0516 32.9815C10.1597 34.9944 9.30281 36.7435 8.02602 38.0526C6.74924 39.3615 5.07121 40.3199 2.20926 40.6946C2.02998 40.715 1.85653 40.7709 1.69898 40.8588C1.54143 40.9468 1.40289 41.0651 1.29141 41.207C1.17993 41.3489 1.09771 41.5115 1.04953 41.6854C1.00134 41.8593 0.988141 42.041 1.0107 42.2201C1.03325 42.3991 1.09111 42.5719 1.18092 42.7284C1.27073 42.8849 1.39071 43.022 1.5339 43.1318C1.67709 43.2416 1.84065 43.3219 2.0151 43.368C2.18955 43.4142 2.37142 43.4252 2.55017 43.4006C5.8939 42.9629 8.28169 41.6959 9.96494 39.9702C11.6482 38.2445 12.6293 36.1548 13.5445 34.0895C15.3748 29.959 16.8195 25.9677 22.1524 23.5426C22.455 23.4191 22.7031 23.1911 22.8516 22.9C23.0002 22.609 23.0393 22.2743 22.9619 21.9569C22.8844 21.6394 22.6956 21.3603 22.4297 21.1704C22.1639 20.9804 21.8386 20.8922 21.5132 20.9219V20.9219ZM33.5303 20.9219C33.2204 20.9349 32.9242 21.0533 32.6906 21.2573C32.4569 21.4614 32.2999 21.739 32.2453 22.0443C32.1906 22.3497 32.2417 22.6645 32.3901 22.9369C32.5385 23.2093 32.7754 23.4229 33.0615 23.5426C38.3945 25.9677 39.8392 29.959 41.6695 34.0895C42.5846 36.1548 43.5658 38.2445 45.249 39.9702C46.9323 41.6959 49.3201 42.9629 52.6638 43.4006C52.8426 43.4252 53.0244 43.4142 53.1989 43.368C53.3733 43.3219 53.5369 43.2416 53.6801 43.1318C53.8233 43.022 53.9432 42.8849 54.0331 42.7284C54.1229 42.5719 54.1807 42.3991 54.2033 42.2201C54.2258 42.041 54.2126 41.8593 54.1645 41.6854C54.1163 41.5115 54.0341 41.3489 53.9226 41.207C53.8111 41.0651 53.6726 40.9468 53.515 40.8588C53.3574 40.7709 53.184 40.715 53.0047 40.6946C50.1428 40.3199 48.4647 39.3615 47.188 38.0526C45.9112 36.7435 45.0543 34.9944 44.1624 32.9815C42.3786 28.9559 40.4158 23.8804 34.1908 21.0497C33.9848 20.9526 33.7577 20.9087 33.5303 20.9219V20.9219ZM19.7022 36.2841C19.5118 36.2833 19.3234 36.3223 19.149 36.3987C18.9747 36.4751 18.8182 36.5871 18.6898 36.7276C18.5614 36.8681 18.4637 37.0339 18.4032 37.2144C18.3427 37.3949 18.3207 37.586 18.3385 37.7756C18.471 39.4306 18.619 41.4125 18.3811 43.1023C18.1548 44.71 17.5972 45.9046 16.5274 46.6818C13.5574 47.2466 10.3969 47.1787 6.96068 49.1108C5.14553 50.1313 3.94733 51.3792 3.42375 52.8182C2.90017 54.2572 3.13893 55.7944 3.84989 57.0156C5.27181 59.4583 8.3065 61 11.6695 61C14.8629 61 18.7978 59.3304 22.7703 57.7614C22.801 57.7491 22.8249 57.7303 22.8556 57.7188H22.8769C22.9883 57.7473 23.1028 57.7616 23.2178 57.7614C26.1687 57.6208 29.794 58.3876 33.3811 59.2315C36.9682 60.0755 40.5025 61 43.5445 61C46.9075 61 49.9422 59.4583 51.3641 57.0156C52.0751 55.7944 52.3138 54.2572 51.7902 52.8182C51.2667 51.3792 50.0684 50.1313 48.2533 49.1108C44.8171 47.1787 41.6565 47.2466 38.6865 46.6818C37.6168 45.9046 37.0592 44.71 36.8328 43.1023C36.595 41.4125 36.7429 39.4306 36.8755 37.7756C36.8894 37.5965 36.868 37.4164 36.8124 37.2456C36.7568 37.0748 36.6681 36.9166 36.5514 36.7801C36.4347 36.6436 36.2922 36.5314 36.1321 36.45C35.972 36.3685 35.7974 36.3194 35.6184 36.3054C35.4393 36.2914 35.2592 36.3128 35.0884 36.3684C34.9176 36.424 34.7594 36.5127 34.6229 36.6295C34.4864 36.7462 34.3742 36.8887 34.2928 37.0488C34.2113 37.2089 34.1622 37.3834 34.1482 37.5625C34.0161 39.2124 33.8291 41.3494 34.1269 43.4645C34.4246 45.5797 35.2762 47.8076 37.3229 49.1321C37.4658 49.2247 37.6248 49.2898 37.7917 49.3239C41.2793 50.0531 44.0551 49.8701 46.911 51.4759C48.3396 52.2791 48.9956 53.1021 49.2334 53.7557C49.4712 54.4093 49.3815 54.9738 48.999 55.6307C48.2342 56.9445 46.0219 58.2727 43.5445 58.2727C41.0885 58.2727 37.6384 57.4194 34.0203 56.5682C32.3923 56.1852 30.7156 55.8149 29.0559 55.5241C30.5619 55.0628 31.9756 54.6882 32.9337 54.6719C33.2954 54.6662 33.64 54.5171 33.8917 54.2574C34.1434 53.9977 34.2817 53.6486 34.276 53.2869C34.2704 52.9253 34.1213 52.5807 33.8616 52.3289C33.6018 52.0772 33.2527 51.939 32.8911 51.9446C29.6894 51.9991 25.7383 53.6581 21.7689 55.2259C17.7995 56.7937 13.7994 58.2727 11.6695 58.2727C9.19206 58.2727 6.9798 56.9445 6.21494 55.6307C5.83251 54.9738 5.74276 54.4093 5.98057 53.7557C6.21838 53.1021 6.87442 52.2791 8.30301 51.4759C11.1589 49.8701 13.9347 50.0531 17.4223 49.3239C17.5892 49.2898 17.7482 49.2247 17.8911 49.1321C19.9378 47.8076 20.7894 45.5797 21.0871 43.4645C21.3848 41.3494 21.1979 39.2124 21.0658 37.5625C21.0441 37.2158 20.8908 36.8905 20.6374 36.6529C20.384 36.4154 20.0495 36.2834 19.7022 36.2841V36.2841Z" stroke="#6D4897" mask="url(#path-1-outside-1_332_502)"/>
</svg>
