<svg width="55" height="69" viewBox="0 0 55 69" fill="none" xmlns="http://www.w3.org/2000/svg">
<path d="M32.0465 5.00206L30.59 8.27313L25.8671 6.17018C24.2252 5.43914 22.2948 6.17958 21.5638 7.82148L1.88344 52.0208C1.15189 53.6637 1.89274 55.5948 3.53456 56.3259L27.1548 66.8431C28.7967 67.5741 30.7274 66.8326 31.459 65.1897L51.1393 20.9904C51.8704 19.3485 51.1292 17.4185 49.4873 16.6874L44.7644 14.5845L46.2209 11.3134C46.4892 10.7107 46.2181 10.0057 45.616 9.7376L33.6222 4.39723C33.0201 4.12912 32.3148 4.39939 32.0465 5.00206ZM30.7093 10.9393L42.703 16.2797L48.5163 18.8681C48.9555 19.0637 49.154 19.5807 48.9586 20.0194L29.2783 64.2187C29.082 64.6595 28.565 64.858 28.1257 64.6624L4.50554 54.1452C4.06637 53.9496 3.86783 53.4326 4.06412 52.9917L23.7444 8.79246C23.9398 8.35373 24.4569 8.15532 24.8961 8.35087L30.7093 10.9393ZM43.5547 11.4328L42.5837 13.6135L32.7707 9.24411L33.7417 7.06343L43.5547 11.4328Z" fill="#6D4897" stroke="#6D4897" stroke-width="0.5"/>
<path d="M10.0525 44.3713L6.93762 51.367C6.66927 51.9697 6.9403 52.6746 7.54245 52.9427L26.9865 61.6005C27.5887 61.8686 28.294 61.5984 28.5624 60.9957L31.6773 54.0001C31.9456 53.3974 31.6746 52.6923 31.0724 52.4242L11.6283 43.7664C11.0262 43.4983 10.3209 43.7687 10.0525 44.3713ZM29.0111 54.1194L26.8672 58.9343L9.60381 51.2476L11.7477 46.4326L29.0111 54.1194Z" fill="#6D4897" stroke="#6D4897" stroke-width="0.5"/>
<path d="M15.356 32.4605L12.2411 39.4561C11.9727 40.0588 12.2438 40.7637 12.8459 41.0319L32.29 49.6896C32.8921 49.9577 33.5975 49.6875 33.8658 49.0848L36.9807 42.0892C37.2491 41.4865 36.978 40.7814 36.3759 40.5133L16.9318 31.8555C16.3296 31.5874 15.6243 31.8578 15.356 32.4605ZM34.3146 42.2085L32.1707 47.0234L14.9073 39.3367L17.0512 34.5217L34.3146 42.2085Z" fill="#6D4897" stroke="#6D4897" stroke-width="0.5"/>
</svg>
