<svg xmlns="http://www.w3.org/2000/svg" xmlns:xlink="http://www.w3.org/1999/xlink"><defs><clipPath id="clip0_317_251"><path fill="#fff" d="M0 0h32v32H0z"/></clipPath></defs><symbol id="arrow-left" viewBox="0 0 7 12"><path d="M.75 5.997v-.003a.663.663 0 01.047-.238l.232.093-.232-.093a.638.638 0 01.13-.203l4.3-4.657.017-.018.02-.015a.586.586 0 01.771.07.663.663 0 01.098.774l-.014.026-.02.022L2.205 5.97l3.863 4.188a.637.637 0 01.182.444.665.665 0 01-.17.454.604.604 0 01-.448.193.582.582 0 01-.435-.206L.92 6.44h0a.653.653 0 01-.171-.443z" fill="#fff" stroke="#fff" stroke-width=".5"/></symbol><symbol id="arrow-right" viewBox="0 0 7 12"><path d="M6.25 5.997v-.003a.663.663 0 00-.047-.238l-.232.093.232-.093a.638.638 0 00-.13-.203L1.773.896 1.755.878l-.02-.015a.586.586 0 00-.771.07.663.663 0 00-.098.774l.014.026.02.022L4.795 5.97.932 10.16a.637.637 0 00-.182.444.665.665 0 00.17.454.604.604 0 00.448.193.582.582 0 00.435-.206L6.08 6.44h0c.111-.12.17-.28.171-.443z" fill="#fff" stroke="#fff" stroke-width=".5"/></symbol><symbol id="battery" viewBox="0 0 55 69"><path d="M32.047 5.002L30.59 8.273 25.867 6.17a3.263 3.263 0 00-4.303 1.651l-19.68 44.2a3.264 3.264 0 001.65 4.305l23.62 10.517a3.264 3.264 0 004.305-1.653l19.68-44.2a3.263 3.263 0 00-1.652-4.303l-4.723-2.103 1.457-3.27a1.193 1.193 0 00-.605-1.576l-11.994-5.34a1.193 1.193 0 00-1.575.604zm-1.338 5.937l11.994 5.34 5.813 2.59c.44.195.638.712.443 1.15l-19.68 44.2a.874.874 0 01-1.153.443L4.506 54.145a.874.874 0 01-.442-1.153l19.68-44.2a.874.874 0 011.152-.441l5.813 2.588zm12.846.494l-.971 2.18-9.813-4.369.97-2.18 9.814 4.369z" fill="#6D4897" stroke="#6D4897" stroke-width=".5"/><path d="M10.053 44.371l-3.115 6.996a1.193 1.193 0 00.604 1.576L26.987 61.6a1.193 1.193 0 001.575-.604L31.677 54a1.193 1.193 0 00-.605-1.576l-19.444-8.658a1.193 1.193 0 00-1.575.605zM29.01 54.12l-2.144 4.815-17.263-7.686 2.144-4.815L29.01 54.12zM15.356 32.46l-3.115 6.996a1.193 1.193 0 00.605 1.576L32.29 49.69a1.193 1.193 0 001.576-.605l3.115-6.996a1.193 1.193 0 00-.605-1.576l-19.444-8.657a1.193 1.193 0 00-1.576.605zm18.959 9.748l-2.144 4.815-17.264-7.686 2.144-4.815 17.264 7.687z" fill="#6D4897" stroke="#6D4897" stroke-width=".5"/></symbol><symbol id="clock" viewBox="0 0 66 66"><path d="M33.283 7.91c-13.9 0-25.3 11.2-25.3 25.3 0 13.9 11.3 25.3 25.3 25.3 13.9 0 25.3-11.3 25.3-25.3-.1-14.1-11.5-25.3-25.3-25.3zm20.6 36l-1.8-1c-.5-.3-1.1-.1-1.4.4-.3.5-.1 1.1.4 1.4l1.8 1c-1.8 2.9-4.3 5.3-7.1 7.1l-1-1.8c-.3-.5-.9-.6-1.4-.4-.5.3-.6.9-.4 1.4l1.1 1.8c-2.9 1.5-6.2 2.5-9.7 2.6v-2.1c0-.5-.4-1-1-1s-1 .5-1 1v2.1c-3.5-.1-6.8-1.1-9.8-2.6l1.1-1.8c.3-.5.1-1.1-.4-1.4-.5-.3-1.1-.1-1.4.4l-1 1.8c-2.9-1.8-5.3-4.3-7.1-7.1l1.8-1c.5-.3.6-.9.4-1.4-.3-.5-.9-.6-1.4-.4l-1.8 1c-1.5-2.9-2.5-6.2-2.6-9.7h2.1c.5 0 1-.5 1-1 0-.6-.5-1-1-1h-2.3c.2-3.5 1.1-6.8 2.6-9.8l1.8 1c.5.3 1.1.1 1.4-.4.3-.5.1-1.1-.4-1.4l-1.8-1c1.8-2.9 4.3-5.3 7.1-7.1l1 1.8c.3.5.9.6 1.4.4.5-.3.6-.9.4-1.4l-1.1-1.8c2.9-1.5 6.2-2.5 9.8-2.6v2.1c0 .5.4 1 1 1s1-.5 1-1v-2.1c3.5.1 6.8 1.1 9.7 2.6l-1.1 1.8c-.3.5-.1 1.1.4 1.4.5.3 1.1.1 1.4-.4l1-1.8c2.9 1.8 5.3 4.3 7.1 7.1l-1.8 1c-.5.3-.6.9-.4 1.4.3.5.9.6 1.4.4l1.8-1c1.5 2.9 2.5 6.2 2.6 9.8h-2.1c-.6 0-1 .4-1 1 0 .5.4 1 1 1h2.1c0 3.5-.9 6.8-2.4 9.7z" fill="#6D4897" stroke="#6D4897"/><path d="M36.783 33.21c0 1.9-1.6 3.5-3.5 3.5-.4 0-.8-.1-1.1-.2l-6.2 11c-.3.5-.9.7-1.4.4-.5-.3-.7-.9-.4-1.4l6.3-11.2c-.5-.6-.8-1.3-.8-2.1 0-1.6 1.1-2.9 2.5-3.3v-10.2c0-.5.4-1 1-1s1 .5 1 1v10.1c1.5.4 2.6 1.8 2.6 3.4zm24-16.3c-.3-.5-.9-.6-1.4-.4-.5.3-.6.9-.4 1.4 2.7 4.6 4.2 9.8 4.2 15.2 0 22.2-23.4 36.7-43.2 26.9l1.6-.5c.5-.2.8-.7.7-1.2-.2-.5-.7-.8-1.2-.7l-3.9 1.3c-.6.2-.8.8-.7 1.3l1.2 3.8c.2.5.7.8 1.2.7.5-.2.8-.7.7-1.2l-.4-1.6c21.1 10.4 46.1-5 46.1-28.7 0-5.8-1.6-11.4-4.5-16.3z" fill="#6D4897" stroke="#6D4897"/><path d="M46.383 6.21l-1.6.5c-.5.2-.8.7-.7 1.2.2.5.7.8 1.2.7l3.8-1.2c.5-.2.8-.7.7-1.2 0-.1-1.2-3.9-1.2-3.8-.2-.5-.7-.8-1.2-.7-.5.2-.8.7-.7 1.2l.5 1.5c-28.4-14-57.7 17.9-41.6 45 .3.5.9.6 1.4.4.5-.3.6-.9.4-1.4-15-25.4 12.4-55.3 39-42.2z" fill="#6D4897" stroke="#6D4897"/></symbol><symbol id="close" viewBox="0 0 15 15"><path d="M.775 15a.772.772 0 01-.545-1.318L13.686.226a.772.772 0 111.091 1.092L1.322 14.774A.774.774 0 01.775 15z"/><path d="M14.232 15a.765.765 0 01-.545-.226L.23 1.318A.772.772 0 011.32.226l13.457 13.456A.772.772 0 0114.232 15z"/></symbol><symbol id="heart" viewBox="0 0 58 53"><path d="M47.922.666C42.34-.98 34.656.45 29 6.957 23.273.38 15.588-1.05 10.078.666 3.842 2.525 0 8.03 0 15.036 0 30.48 26.535 51.07 27.622 52L29 53l1.378-1.072C31.538 51.07 58 30.479 58 14.965c0-6.935-3.843-12.44-10.078-14.3zM29 47.423C21.025 40.99 4.495 25.474 4.495 15.036c0-5.076 2.537-8.865 6.888-10.152a11.456 11.456 0 013.19-.429c4.132 0 9.062 2.145 12.614 7.435l1.886 2.717 1.884-2.716c4.568-6.721 11.238-8.365 15.806-6.935 4.277 1.286 6.887 5.076 6.887 10.152-.145 10.366-16.675 25.88-24.65 32.315z" fill="#6D4897"/></symbol><symbol id="insta" viewBox="0 0 32 32"><g clip-path="url(#clip0_317_251)" fill-rule="evenodd" clip-rule="evenodd"><path d="M16.01.005c2.213 0 4.428-.01 6.642.003 2.083.012 4.04.487 5.735 1.754C30.6 3.415 31.733 5.675 31.944 8.4c.074.959.051 1.927.053 2.89.005 3.739.002 7.477.001 11.215 0 1.527-.212 3.017-.858 4.413-1.31 2.832-3.597 4.38-6.613 4.917-.629.112-1.277.154-1.917.156-4.417.013-8.834.01-13.25.005-2.297-.002-4.398-.609-6.188-2.099C1.354 28.384.394 26.405.095 24.083a9.582 9.582 0 01-.083-1.21C.008 18.232-.02 13.589.025 8.946.05 6.41.895 4.16 2.783 2.388 4.349.918 6.253.15 8.368.075c2.544-.09 5.094-.021 7.641-.021v-.05zm-.026 29.039c2.13 0 4.261.008 6.392-.006a9.79 9.79 0 001.669-.13c2.088-.378 3.676-1.425 4.508-3.459.423-1.033.56-2.141.579-3.215.07-4.165.03-8.331.025-12.497 0-.451-.005-.908-.069-1.353-.286-2-1.153-3.639-2.993-4.635-1.027-.557-2.142-.767-3.302-.767-4.463-.001-8.926-.003-13.39.003-.403 0-.81.023-1.21.079-2.273.319-3.947 1.44-4.785 3.643-.338.89-.446 1.822-.447 2.768 0 4.357-.004 8.713.006 13.07.001.532.041 1.073.137 1.596.423 2.324 1.718 3.921 4.026 4.563.769.214 1.59.309 2.391.325 2.154.043 4.309.015 6.463.015z"/><path d="M24.247 15.949c-.002 4.555-3.719 8.26-8.276 8.25a8.24 8.24 0 01-8.232-8.252c-.003-4.555 3.709-8.26 8.269-8.256 4.52.005 8.24 3.734 8.239 8.258zm-8.25 5.275c2.905.002 5.3-2.39 5.294-5.291-.005-2.882-2.392-5.274-5.275-5.286-2.902-.011-5.295 2.373-5.301 5.284a5.29 5.29 0 005.281 5.293zm8.556-11.869a1.849 1.849 0 01-1.842-1.87 1.855 1.855 0 011.89-1.86 1.87 1.87 0 011.848 1.872 1.867 1.867 0 01-1.896 1.858z"/></g></symbol><symbol id="logo" viewBox="0 0 1730 590"><path fill="#93E0DD" d="M0 0h1730v590H0z"/><path d="M138.8 141h65.94c22.4 0 38.64 5.32 48.72 15.96 10.08 10.64 15.12 27.02 15.12 49.14v13.86c0 16.24-2.66 29.12-7.98 38.64-5.32 9.24-14.14 15.82-26.46 19.74 26.32 7.28 39.48 28.28 39.48 63v24.78c0 45.92-22.4 68.88-67.2 68.88H138.8V141zm32.76 124.74h25.2c13.72 0 23.66-2.8 29.82-8.4 6.44-5.6 9.66-15.82 9.66-30.66v-17.22c0-13.16-2.52-22.82-7.56-28.98-5.04-6.44-13.3-9.66-24.78-9.66h-32.34v94.92zm0 139.44h34.86c23.24 0 34.86-13.3 34.86-39.9v-26.04c0-15.96-3.22-27.16-9.66-33.6-6.44-6.72-16.94-10.08-31.5-10.08h-28.56v109.62zm117.433-41.16V211.98c0-22.96 5.6-41.02 16.8-54.18 11.48-13.16 28.28-19.74 50.4-19.74 22.12 0 38.92 6.58 50.4 19.74 11.48 13.16 17.22 31.22 17.22 54.18v152.04c0 22.96-5.74 41.02-17.22 54.18-11.48 13.16-28.28 19.74-50.4 19.74-21.84 0-38.5-6.58-49.98-19.74-11.48-13.16-17.22-31.22-17.22-54.18zm32.34-153.72v155.4c0 28.28 11.62 42.42 34.86 42.42 23.24 0 34.86-14.14 34.86-42.42V210.3c0-28.28-11.62-42.42-34.86-42.42-23.24 0-34.86 14.14-34.86 42.42zM442.995 141h68.88c22.4 0 39.06 6.44 49.98 19.32 11.2 12.6 16.8 30.52 16.8 53.76v148.26c0 22.96-5.6 40.88-16.8 53.76-10.92 12.6-27.58 18.9-49.98 18.9h-68.88V141zm32.76 264.18h35.7c23.24 0 34.86-13.86 34.86-41.58V212.4c0-27.72-11.76-41.58-35.28-41.58h-35.28v234.36zM643.686 435V329.58L581.526 141h34.02l45.78 144.48 46.2-144.48h31.08l-62.58 188.58V435h-32.34zm173.26-277.62c10.92-12.88 27.16-19.32 48.72-19.32s37.8 6.58 48.72 19.74c11.2 12.88 16.8 30.8 16.8 53.76v7.98h-31.08v-9.66c0-28-11.2-42-33.6-42-22.4 0-33.6 13.86-33.6 41.58 0 10.36 2.38 20.02 7.14 28.98 5.04 8.68 11.2 16.1 18.48 22.26 7.28 5.88 15.12 12.6 23.52 20.16 8.68 7.28 16.66 14.42 23.94 21.42 7.28 6.72 13.3 15.54 18.06 26.46 5.04 10.92 7.56 22.82 7.56 35.7 0 22.96-5.6 41.02-16.8 54.18-11.2 12.88-27.72 19.32-49.56 19.32-21.84 0-38.36-6.44-49.56-19.32-10.92-13.16-16.38-31.22-16.38-54.18v-16.8h30.66v18.48c0 28 11.48 42 34.44 42 22.96 0 34.44-14 34.44-42 0-8.96-1.82-17.22-5.46-24.78-3.64-7.56-8.4-14.28-14.28-20.16-5.6-5.88-11.9-11.62-18.9-17.22-7-5.6-14-11.48-21-17.64s-13.44-12.6-19.32-19.32c-5.6-6.72-10.22-14.84-13.86-24.36-3.64-9.52-5.46-19.88-5.46-31.08 0-23.24 5.46-41.3 16.38-54.18zm286.474 41.16l-46.62 236.04h-31.5l-48.725-233.94V435h-28.56V141h45.78l48.305 234.78L1088.72 141h45.78v294h-31.08V198.54zm160.62 177.24h-74.34L1178.36 435h-30.24l56.28-294h47.46l56.28 294h-32.76l-11.34-59.22zm-37.8-197.82l-32.34 169.68h65.52l-33.18-169.68zm95.71-36.96h65.52c22.68 0 39.2 5.6 49.56 16.8 10.64 11.2 15.96 28 15.96 50.4v23.94c0 32.48-12.18 52.64-36.54 60.48 24.64 7.28 36.96 27.72 36.96 61.32v45.78c0 16.24 1.96 28 5.88 35.28h-33.18c-3.64-8.12-5.46-20.02-5.46-35.7v-46.2c0-15.96-3.64-27.16-10.92-33.6-7-6.72-17.64-10.08-31.92-10.08h-23.1V435h-32.76V141zm32.76 138.6h24.36c14 0 24.36-2.94 31.08-8.82 7-5.88 10.5-16.38 10.5-31.5v-28.14c0-26.88-11.34-40.32-34.02-40.32h-31.92V279.6zM1550.24 435h-32.34V170.82h-54.18V141h140.7v29.82h-54.18V435z" fill="#fff"/></symbol><symbol id="menu" viewBox="0 0 30 30"><path d="M27.097 1.452H2.903A2.912 2.912 0 000 4.355a2.912 2.912 0 002.903 2.903h24.194A2.912 2.912 0 0030 4.355a2.912 2.912 0 00-2.903-2.903zm0 10.645H2.903A2.912 2.912 0 000 15a2.912 2.912 0 002.903 2.903h24.194A2.912 2.912 0 0030 15a2.912 2.912 0 00-2.903-2.903zm0 10.645H2.903A2.912 2.912 0 000 25.645a2.912 2.912 0 002.903 2.903h24.194A2.912 2.912 0 0030 25.645a2.912 2.912 0 00-2.903-2.903z" fill="#fff"/></symbol><symbol id="mother" viewBox="0 0 60 60"><path d="M39.42 14.813c.19.22.31.34.31.34a1.001 1.001 0 00.71.29h.14l.46-.09a10.296 10.296 0 002.08-.7 5.61 5.61 0 003.23-3.24 3.54 3.54 0 00-.13-2.6 3.19 3.19 0 00-1.92-1.72 2.7 2.7 0 00-1.43-.09 2.77 2.77 0 00-1.19-.81 3.19 3.19 0 00-2.56.25 3.58 3.58 0 00-1.65 2 5.68 5.68 0 00.68 4.56c.359.646.785 1.252 1.27 1.81zm0-5.7a1.57 1.57 0 01.72-.89 1.21 1.21 0 01.97-.1c.11 0 .3.17.59.61a1 1 0 001.19.4 1.35 1.35 0 01.84-.15 1.17 1.17 0 01.72.66c.162.356.18.76.05 1.13a3.719 3.719 0 01-2.16 2.06c-.48.214-.979.384-1.49.51a8.232 8.232 0 01-.9-1.3 3.7 3.7 0 01-.58-2.93h.05zm-6.14 18.95a15.77 15.77 0 002.75 1.53c.196.086.397.163.6.23.102.04.21.06.32.06.203-.002.4-.06.57-.17 0 0 .2-.14.51-.39a15.004 15.004 0 002.25-2.17 7.87 7.87 0 002.11-6 4.5 4.5 0 00-4.92-4 3.81 3.81 0 00-1.92.93 3.78 3.78 0 00-2.09-.41 4.5 4.5 0 00-3.73 5.14 7.82 7.82 0 003.55 5.25zm.41-8.39h.12a2.89 2.89 0 011.35.52 1 1 0 001.24-.19 2.73 2.73 0 011.29-.87 2.51 2.51 0 012.69 2.29 5.85 5.85 0 01-1.67 4.44 13.462 13.462 0 01-1.93 1.87 13.107 13.107 0 01-2.35-1.31 5.86 5.86 0 01-2.75-3.87 2.5 2.5 0 012.01-2.88zm-28 1.769a4.1 4.1 0 003.11-2.22 7.21 7.21 0 002.63.52 6.49 6.49 0 001.16-.1 7.35 7.35 0 006.1-8.39 7.085 7.085 0 00-.41-1.45 1.61 1.61 0 00.36-.44c.118-.212.212-.437.28-.67.81-2.26-.89-5.69-3.56-6.9a9.07 9.07 0 00-5-.7 10.53 10.53 0 00-7.37 4c-1.66 2.34-2.12 5.43-1.37 9.14l.12.86a4 4 0 00-.71 2.81 4.12 4.12 0 004.66 3.54zm10.07-5.91a5.31 5.31 0 01-6.9 1.53c-.13-5.46 3.24-5.9 6.23-6.27.5-.06 1-.13 1.36-.2.125.323.213.658.26 1a5.34 5.34 0 01-.95 3.94zm-11.89 3.52a2.16 2.16 0 01-.84-1.42 2.05 2.05 0 01.49-1.63 1 1 0 00.22-.78l-.18-1.33c-.65-3.2-.3-5.77 1-7.64a8.82 8.82 0 016-3.21 7.928 7.928 0 011.1-.04 6.68 6.68 0 012.85.6c1.8.85 3 3.26 2.52 4.43v.1a.995.995 0 01-.09.24.998.998 0 01-.23.11 10.69 10.69 0 01-1.84.33c-3.09.38-8.28 1-8 8.58v.32c0 .25 0 .5.05.76a2.1 2.1 0 01-1.52 1 2.06 2.06 0 01-1.53-.42z" fill="#6D4897" stroke="#6D4897"/><path d="M47.11 30.762h-3.45a1 1 0 00-1 1v6.05c-4.55-.23-8.72 1.5-10.74 4.31h-2.21l-6.28-6.28-.08-.05a2.32 2.32 0 00-1-1.37l-2.72-1.63c.2-.47.36-.93.48-1.29.69-2.09-.83-4.72-4.66-8-.68-.58-1.4-1.16-2.17-1.75a4.442 4.442 0 00-.85-.5h-.1a4.781 4.781 0 00-4.17.18 4.37 4.37 0 00-2.33 3.27 4 4 0 000 .6v9.35a3 3 0 01-.43 1.62c-1.27 1.73-1.37 5.35-1.37 6.41v7.32a1 1 0 001 1h1.45v7a1 1 0 102 0v-7h6v7a1 1 0 102 0v-7h.58a2.71 2.71 0 002.2-.89c1-1.19.61-3.08.1-5.69a33.17 33.17 0 01-.8-6.64l1.64.71c.287.125.597.19.91.19a2.33 2.33 0 001.65-.68l5.54 5.54v4.72a10.75 10.75 0 0010.73 10.74h9.25a10.7 10.7 0 0010.5-8.6.16.16 0 000-.09.806.806 0 000-.13v-.14a.878.878 0 000-.17l.25-6.75v-.44a11.94 11.94 0 00-11.92-11.92zm-28.94.12c-.1.3-.21.6-.31.88l-.83-.52c.072-.09.13-.191.17-.3a1.08 1.08 0 00-.05-.77l-2.27-4.55c3.44 3.21 3.46 4.74 3.29 5.26zm-10.36-5.94a2.39 2.39 0 011.22-1.84 2.83 2.83 0 012.19-.18l3.61 7.25h-.06l-1.1.55-3 1.49-2.88-5.86v-1.05c0-.12.01-.24.02-.36zm8.8 12c-.056 2.647.216 5.29.81 7.87.33 1.68.7 3.58.32 4a.93.93 0 01-.65.16H6.03v-6.29c0-1.87.3-4.31 1-5.27a4.87 4.87 0 00.78-2.76v-3.81l1.57 3.16a1 1 0 001.33.45l1.32-.61.57 1.16a1 1 0 00.48.44l3.53 1.5zm4.79-.39a.3.3 0 01-.37.11l-6.84-2.96-.41-.7 1.19-.59 2.82 1.69 3.46 2.07a.32.32 0 01.12.41l.03-.03zm21.26 3.27v2.31h-8a11.72 11.72 0 018-2.32v.01zm5.63 17.18h-9.26a8.75 8.75 0 01-8.74-8.74v-4.14h20.85a1 1 0 100-2h-6.48v-9.36h2.45a9.93 9.93 0 019.92 9.92l-.15 7.14a8.73 8.73 0 01-8.59 7.18z" fill="#6D4897" stroke="#6D4897"/><path d="M50.09 49.002H37.31a1 1 0 000 2h12.78a1 1 0 100-2z" fill="#6D4897" stroke="#6D4897"/></symbol><symbol id="pause" viewBox="0 0 365 365"><path d="M74.5 0h73v365h-73zm143 0h73v365h-73z"/></symbol><symbol id="phone" viewBox="0 0 58 72"><path d="M52.085 55.326a3.25 3.25 0 00.073-2.487L34.988 7.651a3.25 3.25 0 00-4.193-1.882l-4.933 1.875a2.25 2.25 0 01-1.41 2.547h0l-.088-.233.088.233 27.633 45.135zm0 0a3.25 3.25 0 01-1.81 1.706L26.72 65.988a3.25 3.25 0 01-4.193-1.883L5.347 18.921a3.25 3.25 0 011.884-4.193l4.932-1.876m39.922 42.474L14.91 13.819l-.09-.233.09.234h0a2.25 2.25 0 01-2.747-.968m0 0l.209-.079-.09-.233-.227.102c.032.072.069.143.108.21zm-6.176-1.396h0a6.76 6.76 0 00-3.91 8.708h0L19.255 65.35h0a6.76 6.76 0 008.708 3.91h0l23.555-8.955h0a6.76 6.76 0 003.91-8.708h0L38.25 6.41h0a6.76 6.76 0 00-8.708-3.91l.089.233-.09-.233-23.554 8.955z" fill="#6D4897" stroke="#6D4897" stroke-width=".5"/></symbol><symbol id="play" viewBox="0 0 61 69"><path d="M10.529 67.438c-4.667 2.694-10.5-.674-10.5-6.062V7.682c0-5.389 5.833-8.756 10.5-6.062l46.5 26.847c4.666 2.694 4.666 9.43 0 12.124l-46.5 26.847z" fill="#fff"/></symbol><symbol id="play2" viewBox="0 0 59 59"><path d="M29.5 0C13.233 0 0 13.233 0 29.5S13.233 59 29.5 59 59 45.767 59 29.5 45.767 0 29.5 0zm0 4.214c13.99 0 25.286 11.296 25.286 25.286 0 13.99-11.296 25.286-25.286 25.286-13.99 0-25.286-11.296-25.286-25.286C4.214 15.51 15.51 4.214 29.5 4.214zm-7.507 9.812a5.219 5.219 0 00-2.546.724c-1.512.897-2.547 2.607-2.59 4.544V39.64c.044 1.936 1.08 3.641 2.59 4.543 1.51.902 3.53.996 5.246.066 5.872-3.376 11.74-6.801 17.604-10.206 1.564-.909 2.655-2.631 2.655-4.588 0-1.956-1.091-3.679-2.655-4.587-5.909-3.317-11.674-6.921-17.604-10.185-.912-.44-1.861-.667-2.7-.658zm.154 4.214c.168.017.341.085.549.154l17.493 10.118c.347.202.55.517.55.944 0 .427-.202.742-.55.944L22.696 40.54c-.467.254-.782.198-1.076.022-.285-.17-.523-.45-.549-.965v-20.26c.026-.515.244-.798.527-.965.22-.117.381-.15.549-.132z" fill="#6D4897"/></symbol><symbol id="spine" viewBox="0 0 61 66"><path d="M3.241 53.977c-.2 3.3-.4 6.5-2.1 9.6-.3.5-.1 1.1.4 1.3.5.2 1.1.1 1.3-.4 1.9-3.5 2.1-7 2.3-10.4.9-13.9 4.5-6.9 4.4-22.6 0-4.1-.1-8.3 1.6-13.4.8-2.5 2.8-4.3 5.3-5 4.4-1.1 7.3-3 8.6-5.7 1.5-3 .4-5.7.3-5.8-.2-.5-.8-.7-1.3-.5-.5.2-.7.8-.5 1.3 0 0 .8 2-.3 4.2-1.1 2.1-3.5 3.7-7.4 4.7-3.2.8-5.7 3.1-6.7 6.3-1.7 5.4-1.7 10-1.7 14 .3 15.3-3.3 7.7-4.2 22.4zm10.7 10.9c.5.2 1.1.1 1.3-.4 7-13.4 2.5-28.5 2.3-29.1-.1-.4-.6-.7-1-.7-.5 0-.8.4-.9.8-2.9 21.8-8 27.7-8.1 27.8-.4.4-.3 1 .1 1.4.4.4 1 .3 1.4-.1.2-.2 4.7-5.3 7.7-23.4.7 5.5.9 14.3-3.2 22.3-.2.6 0 1.1.4 1.4zm44.5-10.9c-.9-14.8-4.5-7-4.4-22.4 0-4.1.1-8.6-1.7-14-1-3.1-3.5-5.5-6.7-6.3-3.8-1-6.3-2.5-7.4-4.6-1.1-2.2-.3-4.2-.3-4.3.2-.5 0-1.1-.5-1.3-.5-.2-1.1 0-1.3.5 0 .1-1.2 2.9.3 5.8 1.3 2.6 4.2 4.6 8.6 5.7 2.5.6 4.5 2.5 5.3 5 1.6 5.1 1.6 9.3 1.6 13.4-.1 15.8 3.5 8.6 4.4 22.6.2 3.4.4 6.9 2.3 10.4.3.5.9.6 1.3.4.5-.3.6-.8.4-1.3-1.5-3.1-1.7-6.3-1.9-9.6zm-5.7 10.7c.4.4 1 .4 1.4 0 .4-.4.4-1 .1-1.4-.1-.1-5.3-6-8.2-27.8-.1-.5-.4-.8-.9-.8s-.9.2-1 .7c-.2.6-4.7 15.7 2.3 29.1.2.5.8.7 1.3.4.5-.2.7-.8.4-1.3-4.2-8-3.9-16.8-3.2-22.3 3 18.1 7.6 23.2 7.8 23.4zM31.84 4.477c-.2-.5-.7-.8-1.2-.6-.5.2-.8.7-.6 1.2 0 0 .2.5.4 1.4.1.5.7.8 1.2.7.5-.2.8-.7.7-1.2l-.5-1.5zm-2 49.9c.5-.1.9-.6.8-1.1-.1-1-.2-1.9-.3-2.9 0-.5-.5-.9-1-.9s-.9.5-.9 1c.1 1 .2 2 .3 3.1 0 .5.5.8 1.1.8zm.201 5.1c.2.5.7.8 1.2.6.5-.2.8-.7.6-1.2-.3-.9-.5-1.9-.7-2.8-.1-.5-.6-.8-1.2-.7-.5.1-.9.6-.7 1.2.2 1 .5 2 .8 2.9zm-.301-21.201c-.3 1-.5 2-.7 3-.1.5.2 1 .8 1.1.5.1 1-.2 1.1-.8.2-1 .4-1.9.7-2.8.2-.5-.1-1.1-.7-1.2-.6-.1-1.1.2-1.2.7zm2.2-30.099c-.5.1-.8.6-.7 1.2.2.9.4 1.8.6 2.9.1.5.6.9 1.1.8.5-.1.9-.6.8-1.1-.2-1.1-.4-2.1-.6-3-.2-.6-.7-.9-1.2-.8zm-3.399 36.1c-.1 1-.2 2-.2 3.1 0 .5.4 1 .9 1s1-.4 1-.9c0-1 .1-2 .2-2.9.1-.5-.3-1-.9-1.1-.5-.1-1 .3-1 .8zm4.2-12.4c-.5-.1-1.1.2-1.2.7-.3.9-.6 1.9-.9 2.8-.2.5.1 1.1.6 1.2.5.2 1.1-.1 1.2-.6.3-1 .7-2 .9-2.9.3-.5 0-1-.6-1.2zm1.399-1.8c.2-1 .4-2 .5-3 .1-.5-.3-1-.8-1.1-.5-.1-1 .3-1.1.8-.1.9-.3 1.9-.5 2.9-.1.5.2 1 .8 1.1.5.2 1-.1 1.1-.7zm-1-16c-.5.1-.9.6-.8 1.1.2 1 .3 2 .4 2.9.1.5.5.9 1.1.9.5-.1.9-.5.9-1.1-.1-1-.2-2-.4-3-.2-.5-.7-.9-1.2-.8zm1.7 6.8c0-.5-.5-.9-1-.9s-.9.5-.9 1c.1 1 .1 2 0 2.9 0 .5.4 1 .9 1s.9-.4 1-.9c.1-.9.1-2 0-3.1zm-3.299 43c.2.5.8.7 1.3.5.5-.2.7-.8.5-1.3-.2-.4-.4-.9-.5-1.3-.2-.5-.8-.8-1.3-.6-.5.2-.8.8-.6 1.3.3.4.4.9.6 1.4z" fill="#6D4897" stroke="#6D4897"/></symbol><symbol id="vk" viewBox="0 0 33 21"><path d="M17.54 20.58C6.6 20.58.36 13.08.1.6h5.48C5.76 9.76 9.8 13.64 13 14.44V.6h5.16v7.9c3.16-.34 6.48-3.94 7.6-7.9h5.16c-.86 4.88-4.46 8.48-7.02 9.96 2.56 1.2 6.66 4.34 8.22 10.02h-5.68c-1.22-3.8-4.26-6.74-8.28-7.14v7.14h-.62z"/></symbol><symbol id="yoga" viewBox="0 0 55 62"><mask id="path-1-outside-1_332_502" maskUnits="userSpaceOnUse" x="0" y="0" width="55" height="62" fill="#6d4897"><path fill="#fff" d="M0 0h55v62H0z"/><path d="M27.607 1c-1.869 0-3.755.29-5.241 1.491-1.487 1.201-2.323 3.223-2.323 5.924 0 2.7.758 5.185 2.067 7.052 1.309 1.868 3.26 3.154 5.497 3.154 2.238 0 4.188-1.286 5.497-3.154 1.31-1.867 2.067-4.352 2.067-7.052 0-2.7-.836-4.723-2.322-5.924C31.361 1.291 29.476 1 27.607 1zm0 2.727c1.555 0 2.78.284 3.537.895.757.612 1.3 1.609 1.3 3.793s-.642 4.142-1.577 5.476c-.935 1.333-2.074 2.002-3.26 2.002s-2.325-.669-3.26-2.002c-.935-1.334-1.577-3.292-1.577-5.476s.543-3.181 1.3-3.793c.757-.611 1.982-.895 3.537-.895zm-6.094 17.195c-.17.011-.336.055-.49.128-6.225 2.83-8.188 7.906-9.971 11.931-.892 2.013-1.75 3.762-3.026 5.072-1.277 1.309-2.955 2.267-5.817 2.642A1.364 1.364 0 102.55 43.4c3.344-.438 5.732-1.705 7.415-3.43 1.683-1.726 2.664-3.816 3.58-5.881 1.83-4.131 3.275-8.122 8.607-10.547a1.363 1.363 0 00-.639-2.621zm12.017 0a1.364 1.364 0 00-.468 2.62c5.333 2.426 6.777 6.417 8.608 10.547.915 2.066 1.896 4.156 3.579 5.881 1.683 1.726 4.071 2.993 7.415 3.43a1.364 1.364 0 10.34-2.705c-2.861-.375-4.54-1.334-5.816-2.642-1.277-1.31-2.134-3.059-3.026-5.072-1.783-4.025-3.746-9.1-9.971-11.931a1.364 1.364 0 00-.66-.128zM19.702 36.284a1.364 1.364 0 00-1.364 1.492c.133 1.655.281 3.636.043 5.326-.226 1.608-.784 2.803-1.854 3.58-2.97.565-6.13.497-9.566 2.429-1.815 1.02-3.014 2.268-3.537 3.707-.524 1.44-.285 2.976.426 4.198C5.272 59.458 8.306 61 11.67 61c3.193 0 7.128-1.67 11.1-3.239.031-.012.055-.03.086-.042h.02c.112.028.227.043.342.042 2.95-.14 6.576.627 10.163 1.47C36.968 60.075 40.502 61 43.544 61c3.364 0 6.398-1.542 7.82-3.984.711-1.222.95-2.759.426-4.198-.523-1.439-1.722-2.687-3.537-3.707-3.436-1.932-6.596-1.864-9.566-2.43-1.07-.776-1.628-1.971-1.854-3.579-.238-1.69-.09-3.671.043-5.326a1.37 1.37 0 00-1.788-1.408 1.367 1.367 0 00-.94 1.194c-.132 1.65-.319 3.787-.021 5.903.298 2.115 1.15 4.343 3.196 5.667.143.093.302.158.469.192 3.487.73 6.263.546 9.119 2.152 1.429.803 2.085 1.626 2.322 2.28.238.653.149 1.218-.234 1.875-.765 1.313-2.977 2.642-5.455 2.642-2.455 0-5.906-.854-9.524-1.705a88.684 88.684 0 00-4.964-1.044c1.506-.461 2.92-.836 3.878-.852a1.364 1.364 0 00-.043-2.727c-3.202.054-7.153 1.713-11.122 3.28-3.97 1.569-7.97 3.048-10.1 3.048-2.477 0-4.69-1.329-5.454-2.642-.382-.657-.472-1.222-.234-1.875.237-.654.893-1.477 2.322-2.28 2.856-1.606 5.632-1.423 9.12-2.152.166-.034.325-.1.468-.192 2.047-1.324 2.898-3.552 3.196-5.667.298-2.116.11-4.253-.021-5.903a1.364 1.364 0 00-1.364-1.278z"/></mask><path d="M27.607 1c-1.869 0-3.755.29-5.241 1.491-1.487 1.201-2.323 3.223-2.323 5.924 0 2.7.758 5.185 2.067 7.052 1.309 1.868 3.26 3.154 5.497 3.154 2.238 0 4.188-1.286 5.497-3.154 1.31-1.867 2.067-4.352 2.067-7.052 0-2.7-.836-4.723-2.322-5.924C31.361 1.291 29.476 1 27.607 1zm0 2.727c1.555 0 2.78.284 3.537.895.757.612 1.3 1.609 1.3 3.793s-.642 4.142-1.577 5.476c-.935 1.333-2.074 2.002-3.26 2.002s-2.325-.669-3.26-2.002c-.935-1.334-1.577-3.292-1.577-5.476s.543-3.181 1.3-3.793c.757-.611 1.982-.895 3.537-.895zm-6.094 17.195c-.17.011-.336.055-.49.128-6.225 2.83-8.188 7.906-9.971 11.931-.892 2.013-1.75 3.762-3.026 5.072-1.277 1.309-2.955 2.267-5.817 2.642A1.364 1.364 0 102.55 43.4c3.344-.438 5.732-1.705 7.415-3.43 1.683-1.726 2.664-3.816 3.58-5.881 1.83-4.131 3.275-8.122 8.607-10.547a1.363 1.363 0 00-.639-2.621zm12.017 0a1.364 1.364 0 00-.468 2.62c5.333 2.426 6.777 6.417 8.608 10.547.915 2.066 1.896 4.156 3.579 5.881 1.683 1.726 4.071 2.993 7.415 3.43a1.364 1.364 0 10.34-2.705c-2.861-.375-4.54-1.334-5.816-2.642-1.277-1.31-2.134-3.059-3.026-5.072-1.783-4.025-3.746-9.1-9.971-11.931a1.364 1.364 0 00-.66-.128zM19.702 36.284a1.364 1.364 0 00-1.364 1.492c.133 1.655.281 3.636.043 5.326-.226 1.608-.784 2.803-1.854 3.58-2.97.565-6.13.497-9.566 2.429-1.815 1.02-3.014 2.268-3.537 3.707-.524 1.44-.285 2.976.426 4.198C5.272 59.458 8.306 61 11.67 61c3.193 0 7.128-1.67 11.1-3.239.031-.012.055-.03.086-.042h.02c.112.028.227.043.342.042 2.95-.14 6.576.627 10.163 1.47C36.968 60.075 40.502 61 43.544 61c3.364 0 6.398-1.542 7.82-3.984.711-1.222.95-2.759.426-4.198-.523-1.439-1.722-2.687-3.537-3.707-3.436-1.932-6.596-1.864-9.566-2.43-1.07-.776-1.628-1.971-1.854-3.579-.238-1.69-.09-3.671.043-5.326a1.37 1.37 0 00-1.788-1.408 1.367 1.367 0 00-.94 1.194c-.132 1.65-.319 3.787-.021 5.903.298 2.115 1.15 4.343 3.196 5.667.143.093.302.158.469.192 3.487.73 6.263.546 9.119 2.152 1.429.803 2.085 1.626 2.322 2.28.238.653.149 1.218-.234 1.875-.765 1.313-2.977 2.642-5.455 2.642-2.455 0-5.906-.854-9.524-1.705a88.684 88.684 0 00-4.964-1.044c1.506-.461 2.92-.836 3.878-.852a1.364 1.364 0 00-.043-2.727c-3.202.054-7.153 1.713-11.122 3.28-3.97 1.569-7.97 3.048-10.1 3.048-2.477 0-4.69-1.329-5.454-2.642-.382-.657-.472-1.222-.234-1.875.237-.654.893-1.477 2.322-2.28 2.856-1.606 5.632-1.423 9.12-2.152.166-.034.325-.1.468-.192 2.047-1.324 2.898-3.552 3.196-5.667.298-2.116.11-4.253-.021-5.903a1.364 1.364 0 00-1.364-1.278z" fill="#6D4897"/><path d="M27.607 1c-1.869 0-3.755.29-5.241 1.491-1.487 1.201-2.323 3.223-2.323 5.924 0 2.7.758 5.185 2.067 7.052 1.309 1.868 3.26 3.154 5.497 3.154 2.238 0 4.188-1.286 5.497-3.154 1.31-1.867 2.067-4.352 2.067-7.052 0-2.7-.836-4.723-2.322-5.924C31.361 1.291 29.476 1 27.607 1zm0 2.727c1.555 0 2.78.284 3.537.895.757.612 1.3 1.609 1.3 3.793s-.642 4.142-1.577 5.476c-.935 1.333-2.074 2.002-3.26 2.002s-2.325-.669-3.26-2.002c-.935-1.334-1.577-3.292-1.577-5.476s.543-3.181 1.3-3.793c.757-.611 1.982-.895 3.537-.895zm-6.094 17.195c-.17.011-.336.055-.49.128-6.225 2.83-8.188 7.906-9.971 11.931-.892 2.013-1.75 3.762-3.026 5.072-1.277 1.309-2.955 2.267-5.817 2.642A1.364 1.364 0 102.55 43.4c3.344-.438 5.732-1.705 7.415-3.43 1.683-1.726 2.664-3.816 3.58-5.881 1.83-4.131 3.275-8.122 8.607-10.547a1.363 1.363 0 00-.639-2.621v0zm12.017 0a1.364 1.364 0 00-.468 2.62c5.333 2.426 6.777 6.417 8.608 10.547.915 2.066 1.896 4.156 3.579 5.881 1.683 1.726 4.071 2.993 7.415 3.43a1.364 1.364 0 10.34-2.705c-2.861-.375-4.54-1.334-5.816-2.642-1.277-1.31-2.134-3.059-3.026-5.072-1.783-4.025-3.746-9.1-9.971-11.931a1.364 1.364 0 00-.66-.128v0zM19.702 36.284a1.364 1.364 0 00-1.364 1.492c.133 1.655.281 3.636.043 5.326-.226 1.608-.784 2.803-1.854 3.58-2.97.565-6.13.497-9.566 2.429-1.815 1.02-3.014 2.268-3.537 3.707-.524 1.44-.285 2.976.426 4.198C5.272 59.458 8.306 61 11.67 61c3.193 0 7.128-1.67 11.1-3.239.031-.012.055-.03.086-.042h.02c.112.028.227.043.342.042 2.95-.14 6.576.627 10.163 1.47C36.968 60.075 40.502 61 43.544 61c3.364 0 6.398-1.542 7.82-3.984.711-1.222.95-2.759.426-4.198-.523-1.439-1.722-2.687-3.537-3.707-3.436-1.932-6.596-1.864-9.566-2.43-1.07-.776-1.628-1.971-1.854-3.579-.238-1.69-.09-3.671.043-5.326a1.37 1.37 0 00-1.788-1.408 1.367 1.367 0 00-.94 1.194c-.132 1.65-.319 3.787-.021 5.903.298 2.115 1.15 4.343 3.196 5.667.143.093.302.158.469.192 3.487.73 6.263.546 9.119 2.152 1.429.803 2.085 1.626 2.322 2.28.238.653.149 1.218-.234 1.875-.765 1.313-2.977 2.642-5.455 2.642-2.455 0-5.906-.854-9.524-1.705a88.684 88.684 0 00-4.964-1.044c1.506-.461 2.92-.836 3.878-.852a1.364 1.364 0 00-.043-2.727c-3.202.054-7.153 1.713-11.122 3.28-3.97 1.569-7.97 3.048-10.1 3.048-2.477 0-4.69-1.329-5.454-2.642-.382-.657-.472-1.222-.234-1.875.237-.654.893-1.477 2.322-2.28 2.856-1.606 5.632-1.423 9.12-2.152.166-.034.325-.1.468-.192 2.047-1.324 2.898-3.552 3.196-5.667.298-2.116.11-4.253-.021-5.903a1.364 1.364 0 00-1.364-1.278v0z" stroke="#6D4897" mask="url(#path-1-outside-1_332_502)"/></symbol><symbol id="yoga2" viewBox="0 0 54 65"><path d="M52.167 43.636a2.38 2.38 0 00-.028-.378l-1.11-6.776a7.601 7.601 0 001.088-3.927 7.666 7.666 0 00-2.69-5.834l-.278-1.714-.078-.5c.17-.335.313-.663.448-.985a12.49 12.49 0 00.847-2.999c.67-4.676-2.043-7.568-2.612-8.11C44.486 7.762 30.584-.256 20.49 1.165c-1.11-.021-10.784.129-14.856 11.296a.877.877 0 00-.17.357L1.326 32.062A2.636 2.636 0 001 33.369l1.644 28.025c0 1.4 1.14 2.542 2.535 2.542 1.395 0 2.534-1.143 2.534-2.492L9.35 34.018l5.21-12.416c.015-.043.015-.086.029-.129a.91.91 0 00.256-.214c.662-.836 1.56-1.957 1.944-2.228 2.178.707 5.374.728 8.542-2.97 1.103-1.286 1.616-2.45 1.95-3.213.093-.215.207-.464.285-.607.1 0 .2-.007.299-.036.092-.028 2.25-.664 4.314.714.719.479 6.99 4.941 7.011 14.08a7.818 7.818 0 00-1.103 1.314 4.33 4.33 0 00-.605-.05 4.281 4.281 0 00-4.271 4.284 4.281 4.281 0 004.27 4.285c.207 0 .407-.022.606-.05.156.235.32.457.498.67l1.58 13.71H38.77a2.544 2.544 0 00-2.534 2.542c0 1.4 1.14 2.542 2.534 2.542h4.115c.683 0 1.352-.286 1.836-.786a2.55 2.55 0 00.705-1.856l-.335-13.416.242-.022.962 3.734 1.537 15.016h-1.48a2.544 2.544 0 00-2.535 2.542c0 1.4 1.14 2.542 2.534 2.542h4.115C51.86 64 53 62.858 53 61.415l-.833-17.779zM5.94 61.386a.756.756 0 01-.754.758c-.413 0-.755-.343-.755-.814l-.868-14.773H6.83l-.89 14.83zm22.38-51.08a6.974 6.974 0 00-.768.135c-1.118-.107-1.56.929-1.894 1.685-.313.707-.74 1.679-1.687 2.785-2.071 2.42-4.342 3.22-6.755 2.378-1.168-.407-2.036.685-3.759 2.856a.887.887 0 00-.164.364.827.827 0 00-.362.4L7.663 33.461a1.036 1.036 0 00-.071.293l-.655 11.018H3.463l-.676-11.468c0-.15.042-.292.128-.42a.83.83 0 00.128-.308l4.122-19.178c.02-.036.05-.065.064-.108C11.009 2.544 20.106 2.93 20.49 2.951c.064.008.121 0 .185-.007 2.4-.35 5.026-.114 7.653.493v6.869h-.008zm8.906 24.72a2.497 2.497 0 01-2.243-2.479c0-1.292.983-2.341 2.243-2.477a7.696 7.696 0 00-.413 2.477c0 .872.15 1.7.413 2.478zm13.098-2.886l-.178-1.085c.092.35.149.714.178 1.086zM33.168 11.435a7.015 7.015 0 00-3.068-1.128V3.9c3.453 1.007 6.834 2.585 9.638 4.256l-4.328 5.176c-1.096-1.1-1.986-1.728-2.242-1.9zm3.445 3.234l4.649-5.555c2.434 1.6 4.27 3.2 5.09 4.399.042.064.1.121.156.171.135.114 2.2 1.964 2.207 5.327a5.116 5.116 0 00-2.563-.693c-2.847 0-5.16 2.32-5.16 5.177 0 .72.149 1.406.412 2.027-.157.072-.313.143-.463.229-.32-5.062-2.391-8.725-4.328-11.082zm6.82 39.564a.758.758 0 01-.548.236H38.77a.756.756 0 010-1.514h2.4a.863.863 0 00.661-.3.896.896 0 00.22-.7l-1.473-12.809a7.516 7.516 0 002.727.978l.341 13.545a.807.807 0 01-.213.564zm1.032-15.787c-.413 0-.819-.043-1.217-.128v-.029.029a5.842 5.842 0 01-3.438-2.178 5.845 5.845 0 01-.862-1.578 5.686 5.686 0 01-.299-1.2 6.065 6.065 0 01-.064-.806 5.956 5.956 0 011.217-3.584 5.942 5.942 0 012.179-1.757l1.26 4.89.299 1.157 1.324 5.163c-.121.007-.257.021-.399.021zm5.994 23.784h-4.115a.756.756 0 010-1.514h2.47c.25 0 .492-.107.662-.292a.904.904 0 00.228-.693L48.06 43.665l-.022-.129-.968-3.763-.448-1.735-1.58-6.155-.933-3.627-.391-1.535-.328-1.278v-.007c0-.014-.014-.022-.014-.036a.966.966 0 00-.2-.343l-.028-.05a3.329 3.329 0 01-.363-1.499 3.39 3.39 0 013.381-3.392 3.342 3.342 0 012.32.943c-.22.971-.618 2.028-1.245 3.17l.207 1.257.178 1.07.042.28.143.87.106.665 1.267 7.718.364 2.22.854 5.234c.007.036.007.072.007.15l.826 17.794a.792.792 0 01-.776.742z" fill="#6D4897" stroke="#6D4897"/></symbol></svg>