<svg width="54" height="65" viewBox="0 0 54 65" fill="none" xmlns="http://www.w3.org/2000/svg">
<path d="M52.1671 43.6362C52.1671 43.5148 52.16 43.3934 52.1387 43.2578L51.0282 36.4817C51.7187 35.3321 52.1173 33.9898 52.1173 32.5546C52.1173 30.4197 51.2418 28.4918 49.8394 27.0995C49.7042 26.971 49.5689 26.8425 49.4266 26.7211L49.1489 25.0074L49.0706 24.5076C49.2415 24.172 49.3838 23.8436 49.5191 23.5223C49.9604 22.4584 50.2309 21.4588 50.3662 20.5234C51.0353 15.8466 48.3232 12.9548 47.7537 12.4121C44.4864 7.76388 30.5841 -0.254554 20.4902 1.16634C19.3797 1.14492 9.70582 1.29487 5.63409 12.4621C5.55578 12.5621 5.49172 12.6835 5.46324 12.8191L1.32745 32.0619C1.11389 32.4475 1 32.8759 1 33.3686L2.64435 61.3938C2.64435 62.7933 3.7833 63.9357 5.17851 63.9357C6.57372 63.9357 7.71266 62.7933 7.71266 61.4438L9.3499 34.0184L14.5606 21.6016C14.5748 21.5587 14.5748 21.5159 14.589 21.473C14.6816 21.4159 14.7741 21.3517 14.8453 21.2588C15.5073 20.4234 16.4042 19.3024 16.7886 19.0311C18.9669 19.738 22.163 19.7594 25.3307 16.0608C26.4341 14.7755 26.9466 13.6117 27.2812 12.8477C27.3737 12.6335 27.4876 12.3836 27.5659 12.2408C27.6656 12.2408 27.7652 12.2336 27.8649 12.2051C27.9574 12.1765 30.1143 11.541 32.1786 12.9191C32.8976 13.3975 39.1689 17.8601 39.1903 26.9995C38.7774 27.3923 38.4073 27.8349 38.0869 28.3133C37.8876 28.2848 37.6883 28.2634 37.4819 28.2634C35.1257 28.2634 33.2108 30.1841 33.2108 32.5475C33.2108 34.9109 35.1257 36.8316 37.4819 36.8316C37.6883 36.8316 37.8876 36.8102 38.0869 36.7816C38.2435 37.0172 38.4073 37.2386 38.5852 37.4528L40.1655 51.1619H38.7703C37.3751 51.1619 36.2361 52.3044 36.2361 53.7038C36.2361 55.1033 37.3751 56.2458 38.7703 56.2458H42.8847C43.5681 56.2458 44.2372 55.9601 44.7213 55.4603C45.1982 54.9605 45.4545 54.2822 45.426 53.6039L45.0914 40.1875C45.1769 40.1803 45.2552 40.1732 45.3335 40.166L46.2945 43.9004L47.832 58.9162H46.3514C44.9562 58.9162 43.8172 60.0586 43.8172 61.4581C43.8172 62.8576 44.9562 64 46.3514 64H50.4658C51.8611 64 53 62.8576 53 61.4153L52.1671 43.6362ZM5.94018 61.3867C5.94018 61.808 5.59849 62.1435 5.18563 62.1435C4.77276 62.1435 4.43107 61.8008 4.43107 61.3296L3.56263 46.5565H6.82998L5.94018 61.3867ZM28.3205 10.3058C27.9859 10.3486 27.7225 10.3986 27.5517 10.4414C26.4341 10.3343 25.9927 11.3697 25.6582 12.1265C25.345 12.8334 24.9179 13.8045 23.9711 14.9112C21.8997 17.3317 19.6289 18.1314 17.2157 17.2889C16.0483 16.8819 15.1799 17.9743 13.4572 20.145C13.3718 20.2521 13.322 20.3806 13.2935 20.5091C13.1369 20.6019 13.0016 20.7305 12.9305 20.909L7.66283 33.4614C7.62724 33.5542 7.59877 33.6542 7.59165 33.7542L6.93676 44.7715H3.46297L2.78672 33.3043C2.78672 33.1544 2.82943 33.0116 2.91485 32.8831C2.97892 32.7902 3.02163 32.6831 3.04298 32.576L7.16455 13.3975C7.1859 13.3618 7.21437 13.3332 7.22861 13.2904C11.0085 2.5444 20.1058 2.92997 20.4902 2.95139C20.5543 2.95853 20.6112 2.95139 20.6753 2.94425C23.0742 2.59438 25.7009 2.83001 28.3276 3.43692V10.3058H28.3205ZM37.2256 35.0251C35.9728 34.8966 34.9833 33.8398 34.9833 32.5475C34.9833 31.2551 35.9656 30.2055 37.2256 30.0698C36.9622 30.8481 36.8127 31.6764 36.8127 32.5475C36.8127 33.4186 36.9622 34.2468 37.2256 35.0251ZM50.3235 32.1405L50.1455 31.0552C50.2381 31.405 50.295 31.7692 50.3235 32.1405ZM33.1681 11.4339C32.1075 10.7271 31.0326 10.42 30.1001 10.3058V3.90104C33.5525 4.9078 36.9337 6.48578 39.7384 8.15659L35.4104 13.3332C34.3142 12.2336 33.4244 11.6053 33.1681 11.4339ZM36.6134 14.6684L41.2617 9.11337C43.6962 10.7128 45.5328 12.3122 46.3514 13.5117C46.3941 13.576 46.4511 13.6331 46.508 13.6831C46.6433 13.7973 48.7076 15.6466 48.7147 19.0097C47.9602 18.5741 47.0846 18.3171 46.1521 18.3171C43.3047 18.3171 40.9912 20.6376 40.9912 23.4937C40.9912 24.2149 41.1407 24.9003 41.4041 25.5215C41.2475 25.5929 41.0909 25.6643 40.9414 25.75C40.6211 20.6876 38.5496 17.0247 36.6134 14.6684ZM43.4329 54.2322C43.2905 54.3822 43.0912 54.4678 42.8847 54.4678H38.7703C38.3503 54.4678 38.0157 54.1251 38.0157 53.711C38.0157 53.2969 38.3574 52.9541 38.7703 52.9541H41.1692C41.4255 52.9541 41.6675 52.847 41.8312 52.6542C42.0021 52.4615 42.0804 52.2115 42.0519 51.9545L40.5784 39.145C41.4041 39.6377 42.3224 39.9733 43.3047 40.1232L43.6464 53.6681C43.6464 53.8824 43.5752 54.0823 43.4329 54.2322ZM44.465 38.4453C44.0522 38.4453 43.6464 38.4024 43.2478 38.3167V38.2882V38.3167C42.1017 38.074 41.0767 37.4956 40.2865 36.6888C40.1157 36.5174 39.9591 36.3318 39.8096 36.139C39.4465 35.6677 39.1547 35.1322 38.9483 34.561C38.8059 34.1754 38.7062 33.7756 38.6493 33.3615C38.6137 33.0973 38.5852 32.8259 38.5852 32.5546C38.5852 31.8477 38.7133 31.1766 38.9411 30.5482C39.1476 29.977 39.4394 29.4486 39.8025 28.9702C40.3791 28.2205 41.1194 27.6207 41.9807 27.2137L43.2407 32.1048L43.5396 33.2615L44.8637 38.4238C44.7426 38.431 44.6074 38.4453 44.465 38.4453ZM50.4587 62.2292H46.3443C45.9243 62.2292 45.5897 61.8865 45.5897 61.4724C45.5897 61.0582 45.9314 60.7155 46.3443 60.7155H48.8144C49.0635 60.7155 49.3055 60.6084 49.4764 60.4228C49.6472 60.2371 49.7255 59.9872 49.7042 59.7302L48.0598 43.6647C48.0527 43.6219 48.0456 43.5791 48.0385 43.5362L47.0704 39.7733L46.6219 38.0383L45.0416 31.8834L44.1091 28.2562L43.7176 26.7211L43.3901 25.443V25.4358C43.3901 25.4216 43.3759 25.4144 43.3759 25.4001C43.3332 25.2645 43.262 25.1574 43.1766 25.0574C43.1695 25.0431 43.1552 25.0217 43.1481 25.0074C42.9203 24.5505 42.7851 24.0506 42.7851 23.508C42.7851 21.6373 44.3013 20.1164 46.1663 20.1164C46.6504 20.1164 47.106 20.2235 47.5259 20.4092C47.8819 20.5662 48.2093 20.7876 48.4869 21.0589C48.2663 22.03 47.8676 23.0867 47.2412 24.2292L47.4476 25.4858L47.6256 26.5569L47.6683 26.8353L47.8107 27.7064L47.9175 28.3705L49.1845 36.089L49.5476 38.3096L50.4018 43.5434C50.4089 43.5791 50.4089 43.6148 50.4089 43.6933L51.2346 61.4867C51.2133 61.8865 50.8716 62.2292 50.4587 62.2292Z" fill="#6D4897" stroke="#6D4897"/>
</svg>
